%FSLAX45Y45*%
G04 Gerber Fmt 4.5, Leading zero omitted, Abs format (unit mm)*
G04 Created by KiCad (PCBNEW 4.0.7-e2-6376~61~ubuntu18.04.1) date Thu Jan 17 03:08:28 2019*
%MOMM*%
%LPD*%
G01*
G04 APERTURE LIST*
%ADD10C,0.127000*%
%ADD11C,0.150000*%
%ADD12C,0.200000*%
%ADD13C,0.300000*%
G04 APERTURE END LIST*
D10*
D11*
X13843000Y-7874000D02*
X13843000Y-11150600D01*
X15367000Y-11150600D02*
X15367000Y-7747000D01*
X14655800Y-6324600D02*
G75*
G03X14655800Y-6324600I-50800J0D01*
G01*
X17500600Y-6324600D02*
G75*
G03X17500600Y-6324600I-50800J0D01*
G01*
X11811000Y-6324600D02*
G75*
G03X11811000Y-6324600I-50800J0D01*
G01*
X11836400Y-8305800D02*
X12065000Y-8305800D01*
X12065000Y-6197600D02*
X11836400Y-6197600D01*
X17145000Y-6197600D02*
X17373600Y-6197600D01*
X17145000Y-8305800D02*
X17373600Y-8305800D01*
X11582400Y-8051800D02*
X11582400Y-6451600D01*
X12827000Y-8051800D02*
X12827000Y-7874000D01*
X17627600Y-8051800D02*
X17627600Y-6705600D01*
X16383000Y-7874000D02*
X16383000Y-8051800D01*
X17627600Y-6451600D02*
X17627600Y-6705600D01*
X17627600Y-6451600D02*
G75*
G03X17373600Y-6197600I-254000J0D01*
G01*
X12827000Y-7747000D02*
X12827000Y-7874000D01*
X12954000Y-7620000D02*
X13081000Y-7620000D01*
X16129000Y-7620000D02*
X16256000Y-7620000D01*
X16383000Y-7874000D02*
X16383000Y-7747000D01*
X16383000Y-7747000D02*
G75*
G03X16256000Y-7620000I-127000J0D01*
G01*
X12954000Y-7620000D02*
G75*
G03X12827000Y-7747000I0J-127000D01*
G01*
X16637000Y-8305800D02*
X17145000Y-8305800D01*
X17373600Y-8305800D02*
G75*
G03X17627600Y-8051800I0J254000D01*
G01*
X16383000Y-8051800D02*
G75*
G03X16637000Y-8305800I254000J0D01*
G01*
X15113000Y-11404600D02*
G75*
G03X15367000Y-11150600I0J254000D01*
G01*
X13843000Y-11150600D02*
G75*
G03X14097000Y-11404600I254000J0D01*
G01*
X15494000Y-7620000D02*
G75*
G03X15367000Y-7747000I0J-127000D01*
G01*
X13843000Y-7747000D02*
G75*
G03X13716000Y-7620000I-127000J0D01*
G01*
X12573000Y-8305800D02*
G75*
G03X12827000Y-8051800I0J254000D01*
G01*
X11582400Y-8051800D02*
G75*
G03X11836400Y-8305800I254000J0D01*
G01*
X11836400Y-6197600D02*
G75*
G03X11582400Y-6451600I0J-254000D01*
G01*
X12573000Y-8305800D02*
X12065000Y-8305800D01*
X13843000Y-7747000D02*
X13843000Y-7874000D01*
X13081000Y-7620000D02*
X13716000Y-7620000D01*
X15113000Y-11404600D02*
X14097000Y-11404600D01*
X15494000Y-7620000D02*
X16129000Y-7620000D01*
X12065000Y-6197600D02*
X17145000Y-6197600D01*
D12*
X13315000Y-6609400D02*
X13355000Y-6649400D01*
X13355000Y-6609400D02*
X13315000Y-6649400D01*
X17175800Y-6558600D02*
X17215800Y-6598600D01*
X17215800Y-6558600D02*
X17175800Y-6598600D01*
X12013400Y-7594600D02*
G75*
G03X12013400Y-7594600I-50000J0D01*
G01*
X12242000Y-7975600D02*
G75*
G03X12242000Y-7975600I-50000J0D01*
G01*
X12267400Y-7594600D02*
G75*
G03X12267400Y-7594600I-50000J0D01*
G01*
X12496000Y-7975600D02*
G75*
G03X12496000Y-7975600I-50000J0D01*
G01*
X12521400Y-7594600D02*
G75*
G03X12521400Y-7594600I-50000J0D01*
G01*
X14274000Y-7848600D02*
G75*
G03X14274000Y-7848600I-50000J0D01*
G01*
X14274000Y-8102600D02*
G75*
G03X14274000Y-8102600I-50000J0D01*
G01*
X14274000Y-8356600D02*
G75*
G03X14274000Y-8356600I-50000J0D01*
G01*
X14274000Y-8610600D02*
G75*
G03X14274000Y-8610600I-50000J0D01*
G01*
X14274000Y-8864600D02*
G75*
G03X14274000Y-8864600I-50000J0D01*
G01*
X14274000Y-9118600D02*
G75*
G03X14274000Y-9118600I-50000J0D01*
G01*
X14274000Y-9372600D02*
G75*
G03X14274000Y-9372600I-50000J0D01*
G01*
X14274000Y-9626600D02*
G75*
G03X14274000Y-9626600I-50000J0D01*
G01*
X14274000Y-9880600D02*
G75*
G03X14274000Y-9880600I-50000J0D01*
G01*
X14274000Y-10134600D02*
G75*
G03X14274000Y-10134600I-50000J0D01*
G01*
X14274000Y-10388600D02*
G75*
G03X14274000Y-10388600I-50000J0D01*
G01*
X14274000Y-10642600D02*
G75*
G03X14274000Y-10642600I-50000J0D01*
G01*
X14274000Y-10896600D02*
G75*
G03X14274000Y-10896600I-50000J0D01*
G01*
X14274000Y-11150600D02*
G75*
G03X14274000Y-11150600I-50000J0D01*
G01*
X15036000Y-7848600D02*
G75*
G03X15036000Y-7848600I-50000J0D01*
G01*
X15036000Y-8102600D02*
G75*
G03X15036000Y-8102600I-50000J0D01*
G01*
X15036000Y-8356600D02*
G75*
G03X15036000Y-8356600I-50000J0D01*
G01*
X15036000Y-8610600D02*
G75*
G03X15036000Y-8610600I-50000J0D01*
G01*
X15036000Y-8864600D02*
G75*
G03X15036000Y-8864600I-50000J0D01*
G01*
X15036000Y-9118600D02*
G75*
G03X15036000Y-9118600I-50000J0D01*
G01*
X15036000Y-9372600D02*
G75*
G03X15036000Y-9372600I-50000J0D01*
G01*
X15036000Y-9626600D02*
G75*
G03X15036000Y-9626600I-50000J0D01*
G01*
X15036000Y-9880600D02*
G75*
G03X15036000Y-9880600I-50000J0D01*
G01*
X15036000Y-10134600D02*
G75*
G03X15036000Y-10134600I-50000J0D01*
G01*
X15036000Y-10388600D02*
G75*
G03X15036000Y-10388600I-50000J0D01*
G01*
X15036000Y-10642600D02*
G75*
G03X15036000Y-10642600I-50000J0D01*
G01*
X15036000Y-10896600D02*
G75*
G03X15036000Y-10896600I-50000J0D01*
G01*
X15036000Y-11150600D02*
G75*
G03X15036000Y-11150600I-50000J0D01*
G01*
X16788600Y-7620000D02*
G75*
G03X16788600Y-7620000I-50000J0D01*
G01*
X16814000Y-7975600D02*
G75*
G03X16814000Y-7975600I-50000J0D01*
G01*
X17042600Y-7620000D02*
G75*
G03X17042600Y-7620000I-50000J0D01*
G01*
X17068000Y-7975600D02*
G75*
G03X17068000Y-7975600I-50000J0D01*
G01*
X17296600Y-7620000D02*
G75*
G03X17296600Y-7620000I-50000J0D01*
G01*
X12192000Y-6756400D02*
X12192000Y-6858000D01*
X12141200Y-6807200D02*
X12242800Y-6807200D01*
X12192000Y-7010400D02*
X12192000Y-7112000D01*
X12141200Y-7061200D02*
X12242800Y-7061200D01*
X12446000Y-6756400D02*
X12446000Y-6858000D01*
X12395200Y-6807200D02*
X12496800Y-6807200D01*
X12446000Y-7010400D02*
X12446000Y-7112000D01*
X12395200Y-7061200D02*
X12496800Y-7061200D01*
X12700000Y-6756400D02*
X12700000Y-6858000D01*
X12649200Y-6807200D02*
X12750800Y-6807200D01*
X12700000Y-7010400D02*
X12700000Y-7112000D01*
X12649200Y-7061200D02*
X12750800Y-7061200D01*
X12954000Y-6756400D02*
X12954000Y-6858000D01*
X12903200Y-6807200D02*
X13004800Y-6807200D01*
X12954000Y-7010400D02*
X12954000Y-7112000D01*
X12903200Y-7061200D02*
X13004800Y-7061200D01*
X13208000Y-6756400D02*
X13208000Y-6858000D01*
X13157200Y-6807200D02*
X13258800Y-6807200D01*
X13208000Y-7010400D02*
X13208000Y-7112000D01*
X13157200Y-7061200D02*
X13258800Y-7061200D01*
X13462000Y-6756400D02*
X13462000Y-6858000D01*
X13411200Y-6807200D02*
X13512800Y-6807200D01*
X13462000Y-7010400D02*
X13462000Y-7112000D01*
X13411200Y-7061200D02*
X13512800Y-7061200D01*
X13716000Y-6756400D02*
X13716000Y-6858000D01*
X13665200Y-6807200D02*
X13766800Y-6807200D01*
X13716000Y-7010400D02*
X13716000Y-7112000D01*
X13665200Y-7061200D02*
X13766800Y-7061200D01*
X13970000Y-6756400D02*
X13970000Y-6858000D01*
X13919200Y-6807200D02*
X14020800Y-6807200D01*
X13970000Y-7010400D02*
X13970000Y-7112000D01*
X13919200Y-7061200D02*
X14020800Y-7061200D01*
X14224000Y-6756400D02*
X14224000Y-6858000D01*
X14173200Y-6807200D02*
X14274800Y-6807200D01*
X14224000Y-7010400D02*
X14224000Y-7112000D01*
X14173200Y-7061200D02*
X14274800Y-7061200D01*
X14478000Y-6756400D02*
X14478000Y-6858000D01*
X14427200Y-6807200D02*
X14528800Y-6807200D01*
X14478000Y-7010400D02*
X14478000Y-7112000D01*
X14427200Y-7061200D02*
X14528800Y-7061200D01*
X14732000Y-6756400D02*
X14732000Y-6858000D01*
X14681200Y-6807200D02*
X14782800Y-6807200D01*
X14732000Y-7010400D02*
X14732000Y-7112000D01*
X14681200Y-7061200D02*
X14782800Y-7061200D01*
X14986000Y-6756400D02*
X14986000Y-6858000D01*
X14935200Y-6807200D02*
X15036800Y-6807200D01*
X14986000Y-7010400D02*
X14986000Y-7112000D01*
X14935200Y-7061200D02*
X15036800Y-7061200D01*
X15240000Y-6756400D02*
X15240000Y-6858000D01*
X15189200Y-6807200D02*
X15290800Y-6807200D01*
X15240000Y-7010400D02*
X15240000Y-7112000D01*
X15189200Y-7061200D02*
X15290800Y-7061200D01*
X15494000Y-6756400D02*
X15494000Y-6858000D01*
X15443200Y-6807200D02*
X15544800Y-6807200D01*
X15494000Y-7010400D02*
X15494000Y-7112000D01*
X15443200Y-7061200D02*
X15544800Y-7061200D01*
X15748000Y-6756400D02*
X15748000Y-6858000D01*
X15697200Y-6807200D02*
X15798800Y-6807200D01*
X15748000Y-7010400D02*
X15748000Y-7112000D01*
X15697200Y-7061200D02*
X15798800Y-7061200D01*
X16002000Y-6756400D02*
X16002000Y-6858000D01*
X15951200Y-6807200D02*
X16052800Y-6807200D01*
X16002000Y-7010400D02*
X16002000Y-7112000D01*
X15951200Y-7061200D02*
X16052800Y-7061200D01*
X16256000Y-6756400D02*
X16256000Y-6858000D01*
X16205200Y-6807200D02*
X16306800Y-6807200D01*
X16256000Y-7010400D02*
X16256000Y-7112000D01*
X16205200Y-7061200D02*
X16306800Y-7061200D01*
X16510000Y-6756400D02*
X16510000Y-6858000D01*
X16459200Y-6807200D02*
X16560800Y-6807200D01*
X16510000Y-7010400D02*
X16510000Y-7112000D01*
X16459200Y-7061200D02*
X16560800Y-7061200D01*
X16764000Y-6756400D02*
X16764000Y-6858000D01*
X16713200Y-6807200D02*
X16814800Y-6807200D01*
X16764000Y-7010400D02*
X16764000Y-7112000D01*
X16713200Y-7061200D02*
X16814800Y-7061200D01*
X17018000Y-6756400D02*
X17018000Y-6858000D01*
X16967200Y-6807200D02*
X17068800Y-6807200D01*
X17018000Y-7010400D02*
X17018000Y-7112000D01*
X16967200Y-7061200D02*
X17068800Y-7061200D01*
D13*
X11846328Y-11877814D02*
X11846328Y-11577814D01*
X11917757Y-11577814D01*
X11960614Y-11592100D01*
X11989186Y-11620671D01*
X12003471Y-11649243D01*
X12017757Y-11706386D01*
X12017757Y-11749243D01*
X12003471Y-11806386D01*
X11989186Y-11834957D01*
X11960614Y-11863529D01*
X11917757Y-11877814D01*
X11846328Y-11877814D01*
X12146328Y-11877814D02*
X12146328Y-11677814D01*
X12146328Y-11734957D02*
X12160614Y-11706386D01*
X12174900Y-11692100D01*
X12203471Y-11677814D01*
X12232043Y-11677814D01*
X12332043Y-11877814D02*
X12332043Y-11677814D01*
X12332043Y-11577814D02*
X12317757Y-11592100D01*
X12332043Y-11606386D01*
X12346328Y-11592100D01*
X12332043Y-11577814D01*
X12332043Y-11606386D01*
X12517757Y-11877814D02*
X12489186Y-11863529D01*
X12474900Y-11834957D01*
X12474900Y-11577814D01*
X12674900Y-11877814D02*
X12646328Y-11863529D01*
X12632043Y-11834957D01*
X12632043Y-11577814D01*
X13017757Y-11877814D02*
X13017757Y-11577814D01*
X13117757Y-11792100D01*
X13217757Y-11577814D01*
X13217757Y-11877814D01*
X13489186Y-11877814D02*
X13489186Y-11720671D01*
X13474900Y-11692100D01*
X13446328Y-11677814D01*
X13389186Y-11677814D01*
X13360614Y-11692100D01*
X13489186Y-11863529D02*
X13460614Y-11877814D01*
X13389186Y-11877814D01*
X13360614Y-11863529D01*
X13346328Y-11834957D01*
X13346328Y-11806386D01*
X13360614Y-11777814D01*
X13389186Y-11763529D01*
X13460614Y-11763529D01*
X13489186Y-11749243D01*
X13632043Y-11677814D02*
X13632043Y-11977814D01*
X13632043Y-11692100D02*
X13660614Y-11677814D01*
X13717757Y-11677814D01*
X13746328Y-11692100D01*
X13760614Y-11706386D01*
X13774900Y-11734957D01*
X13774900Y-11820671D01*
X13760614Y-11849243D01*
X13746328Y-11863529D01*
X13717757Y-11877814D01*
X13660614Y-11877814D01*
X13632043Y-11863529D01*
X13903471Y-11849243D02*
X13917757Y-11863529D01*
X13903471Y-11877814D01*
X13889186Y-11863529D01*
X13903471Y-11849243D01*
X13903471Y-11877814D01*
X13903471Y-11692100D02*
X13917757Y-11706386D01*
X13903471Y-11720671D01*
X13889186Y-11706386D01*
X13903471Y-11692100D01*
X13903471Y-11720671D01*
X11534900Y-12352100D02*
X11574900Y-12392100D01*
X11574900Y-12352100D02*
X11534900Y-12392100D01*
X11903471Y-12207814D02*
X11932043Y-12207814D01*
X11960614Y-12222100D01*
X11974900Y-12236386D01*
X11989186Y-12264957D01*
X12003471Y-12322100D01*
X12003471Y-12393529D01*
X11989186Y-12450671D01*
X11974900Y-12479243D01*
X11960614Y-12493529D01*
X11932043Y-12507814D01*
X11903471Y-12507814D01*
X11874900Y-12493529D01*
X11860614Y-12479243D01*
X11846328Y-12450671D01*
X11832043Y-12393529D01*
X11832043Y-12322100D01*
X11846328Y-12264957D01*
X11860614Y-12236386D01*
X11874900Y-12222100D01*
X11903471Y-12207814D01*
X12132043Y-12479243D02*
X12146328Y-12493529D01*
X12132043Y-12507814D01*
X12117757Y-12493529D01*
X12132043Y-12479243D01*
X12132043Y-12507814D01*
X12403471Y-12307814D02*
X12403471Y-12507814D01*
X12332043Y-12193529D02*
X12260614Y-12407814D01*
X12446328Y-12407814D01*
X12617757Y-12207814D02*
X12646328Y-12207814D01*
X12674900Y-12222100D01*
X12689186Y-12236386D01*
X12703471Y-12264957D01*
X12717757Y-12322100D01*
X12717757Y-12393529D01*
X12703471Y-12450671D01*
X12689186Y-12479243D01*
X12674900Y-12493529D01*
X12646328Y-12507814D01*
X12617757Y-12507814D01*
X12589186Y-12493529D01*
X12574900Y-12479243D01*
X12560614Y-12450671D01*
X12546328Y-12393529D01*
X12546328Y-12322100D01*
X12560614Y-12264957D01*
X12574900Y-12236386D01*
X12589186Y-12222100D01*
X12617757Y-12207814D01*
X12846328Y-12507814D02*
X12846328Y-12307814D01*
X12846328Y-12336386D02*
X12860614Y-12322100D01*
X12889186Y-12307814D01*
X12932043Y-12307814D01*
X12960614Y-12322100D01*
X12974900Y-12350671D01*
X12974900Y-12507814D01*
X12974900Y-12350671D02*
X12989186Y-12322100D01*
X13017757Y-12307814D01*
X13060614Y-12307814D01*
X13089186Y-12322100D01*
X13103471Y-12350671D01*
X13103471Y-12507814D01*
X13246328Y-12507814D02*
X13246328Y-12307814D01*
X13246328Y-12336386D02*
X13260614Y-12322100D01*
X13289186Y-12307814D01*
X13332043Y-12307814D01*
X13360614Y-12322100D01*
X13374900Y-12350671D01*
X13374900Y-12507814D01*
X13374900Y-12350671D02*
X13389186Y-12322100D01*
X13417757Y-12307814D01*
X13460614Y-12307814D01*
X13489186Y-12322100D01*
X13503471Y-12350671D01*
X13503471Y-12507814D01*
X14089186Y-12193529D02*
X13832043Y-12579243D01*
X14474900Y-12207814D02*
X14503471Y-12207814D01*
X14532043Y-12222100D01*
X14546328Y-12236386D01*
X14560614Y-12264957D01*
X14574900Y-12322100D01*
X14574900Y-12393529D01*
X14560614Y-12450671D01*
X14546328Y-12479243D01*
X14532043Y-12493529D01*
X14503471Y-12507814D01*
X14474900Y-12507814D01*
X14446328Y-12493529D01*
X14432043Y-12479243D01*
X14417757Y-12450671D01*
X14403471Y-12393529D01*
X14403471Y-12322100D01*
X14417757Y-12264957D01*
X14432043Y-12236386D01*
X14446328Y-12222100D01*
X14474900Y-12207814D01*
X14703471Y-12479243D02*
X14717757Y-12493529D01*
X14703471Y-12507814D01*
X14689186Y-12493529D01*
X14703471Y-12479243D01*
X14703471Y-12507814D01*
X14903471Y-12207814D02*
X14932043Y-12207814D01*
X14960614Y-12222100D01*
X14974900Y-12236386D01*
X14989185Y-12264957D01*
X15003471Y-12322100D01*
X15003471Y-12393529D01*
X14989185Y-12450671D01*
X14974900Y-12479243D01*
X14960614Y-12493529D01*
X14932043Y-12507814D01*
X14903471Y-12507814D01*
X14874900Y-12493529D01*
X14860614Y-12479243D01*
X14846328Y-12450671D01*
X14832043Y-12393529D01*
X14832043Y-12322100D01*
X14846328Y-12264957D01*
X14860614Y-12236386D01*
X14874900Y-12222100D01*
X14903471Y-12207814D01*
X15289185Y-12507814D02*
X15117757Y-12507814D01*
X15203471Y-12507814D02*
X15203471Y-12207814D01*
X15174900Y-12250671D01*
X15146328Y-12279243D01*
X15117757Y-12293529D01*
X15546328Y-12207814D02*
X15489185Y-12207814D01*
X15460614Y-12222100D01*
X15446328Y-12236386D01*
X15417757Y-12279243D01*
X15403471Y-12336386D01*
X15403471Y-12450671D01*
X15417757Y-12479243D01*
X15432043Y-12493529D01*
X15460614Y-12507814D01*
X15517757Y-12507814D01*
X15546328Y-12493529D01*
X15560614Y-12479243D01*
X15574900Y-12450671D01*
X15574900Y-12379243D01*
X15560614Y-12350671D01*
X15546328Y-12336386D01*
X15517757Y-12322100D01*
X15460614Y-12322100D01*
X15432043Y-12336386D01*
X15417757Y-12350671D01*
X15403471Y-12379243D01*
X15689186Y-12207814D02*
X15689186Y-12264957D01*
X15803471Y-12207814D02*
X15803471Y-12264957D01*
X16246328Y-12622100D02*
X16232043Y-12607814D01*
X16203471Y-12564957D01*
X16189185Y-12536386D01*
X16174900Y-12493529D01*
X16160614Y-12422100D01*
X16160614Y-12364957D01*
X16174900Y-12293529D01*
X16189185Y-12250671D01*
X16203471Y-12222100D01*
X16232043Y-12179243D01*
X16246328Y-12164957D01*
X16346328Y-12236386D02*
X16360614Y-12222100D01*
X16389185Y-12207814D01*
X16460614Y-12207814D01*
X16489185Y-12222100D01*
X16503471Y-12236386D01*
X16517757Y-12264957D01*
X16517757Y-12293529D01*
X16503471Y-12336386D01*
X16332043Y-12507814D01*
X16517757Y-12507814D01*
X16874900Y-12507814D02*
X16874900Y-12207814D01*
X17003471Y-12507814D02*
X17003471Y-12350671D01*
X16989186Y-12322100D01*
X16960614Y-12307814D01*
X16917757Y-12307814D01*
X16889186Y-12322100D01*
X16874900Y-12336386D01*
X17189186Y-12507814D02*
X17160614Y-12493529D01*
X17146328Y-12479243D01*
X17132043Y-12450671D01*
X17132043Y-12364957D01*
X17146328Y-12336386D01*
X17160614Y-12322100D01*
X17189186Y-12307814D01*
X17232043Y-12307814D01*
X17260614Y-12322100D01*
X17274900Y-12336386D01*
X17289186Y-12364957D01*
X17289186Y-12450671D01*
X17274900Y-12479243D01*
X17260614Y-12493529D01*
X17232043Y-12507814D01*
X17189186Y-12507814D01*
X17460614Y-12507814D02*
X17432043Y-12493529D01*
X17417757Y-12464957D01*
X17417757Y-12207814D01*
X17689186Y-12493529D02*
X17660614Y-12507814D01*
X17603471Y-12507814D01*
X17574900Y-12493529D01*
X17560614Y-12464957D01*
X17560614Y-12350671D01*
X17574900Y-12322100D01*
X17603471Y-12307814D01*
X17660614Y-12307814D01*
X17689186Y-12322100D01*
X17703471Y-12350671D01*
X17703471Y-12379243D01*
X17560614Y-12407814D01*
X17817757Y-12493529D02*
X17846329Y-12507814D01*
X17903471Y-12507814D01*
X17932043Y-12493529D01*
X17946329Y-12464957D01*
X17946329Y-12450671D01*
X17932043Y-12422100D01*
X17903471Y-12407814D01*
X17860614Y-12407814D01*
X17832043Y-12393529D01*
X17817757Y-12364957D01*
X17817757Y-12350671D01*
X17832043Y-12322100D01*
X17860614Y-12307814D01*
X17903471Y-12307814D01*
X17932043Y-12322100D01*
X18046328Y-12622100D02*
X18060614Y-12607814D01*
X18089186Y-12564957D01*
X18103471Y-12536386D01*
X18117757Y-12493529D01*
X18132043Y-12422100D01*
X18132043Y-12364957D01*
X18117757Y-12293529D01*
X18103471Y-12250671D01*
X18089186Y-12222100D01*
X18060614Y-12179243D01*
X18046328Y-12164957D01*
X11574900Y-12768100D02*
G75*
G03X11574900Y-12768100I-50000J0D01*
G01*
X12003471Y-12903814D02*
X11832043Y-12903814D01*
X11917757Y-12903814D02*
X11917757Y-12603814D01*
X11889186Y-12646671D01*
X11860614Y-12675243D01*
X11832043Y-12689529D01*
X12132043Y-12875243D02*
X12146328Y-12889529D01*
X12132043Y-12903814D01*
X12117757Y-12889529D01*
X12132043Y-12875243D01*
X12132043Y-12903814D01*
X12332043Y-12603814D02*
X12360614Y-12603814D01*
X12389186Y-12618100D01*
X12403471Y-12632386D01*
X12417757Y-12660957D01*
X12432043Y-12718100D01*
X12432043Y-12789529D01*
X12417757Y-12846671D01*
X12403471Y-12875243D01*
X12389186Y-12889529D01*
X12360614Y-12903814D01*
X12332043Y-12903814D01*
X12303471Y-12889529D01*
X12289186Y-12875243D01*
X12274900Y-12846671D01*
X12260614Y-12789529D01*
X12260614Y-12718100D01*
X12274900Y-12660957D01*
X12289186Y-12632386D01*
X12303471Y-12618100D01*
X12332043Y-12603814D01*
X12617757Y-12603814D02*
X12646328Y-12603814D01*
X12674900Y-12618100D01*
X12689186Y-12632386D01*
X12703471Y-12660957D01*
X12717757Y-12718100D01*
X12717757Y-12789529D01*
X12703471Y-12846671D01*
X12689186Y-12875243D01*
X12674900Y-12889529D01*
X12646328Y-12903814D01*
X12617757Y-12903814D01*
X12589186Y-12889529D01*
X12574900Y-12875243D01*
X12560614Y-12846671D01*
X12546328Y-12789529D01*
X12546328Y-12718100D01*
X12560614Y-12660957D01*
X12574900Y-12632386D01*
X12589186Y-12618100D01*
X12617757Y-12603814D01*
X12846328Y-12903814D02*
X12846328Y-12703814D01*
X12846328Y-12732386D02*
X12860614Y-12718100D01*
X12889186Y-12703814D01*
X12932043Y-12703814D01*
X12960614Y-12718100D01*
X12974900Y-12746671D01*
X12974900Y-12903814D01*
X12974900Y-12746671D02*
X12989186Y-12718100D01*
X13017757Y-12703814D01*
X13060614Y-12703814D01*
X13089186Y-12718100D01*
X13103471Y-12746671D01*
X13103471Y-12903814D01*
X13246328Y-12903814D02*
X13246328Y-12703814D01*
X13246328Y-12732386D02*
X13260614Y-12718100D01*
X13289186Y-12703814D01*
X13332043Y-12703814D01*
X13360614Y-12718100D01*
X13374900Y-12746671D01*
X13374900Y-12903814D01*
X13374900Y-12746671D02*
X13389186Y-12718100D01*
X13417757Y-12703814D01*
X13460614Y-12703814D01*
X13489186Y-12718100D01*
X13503471Y-12746671D01*
X13503471Y-12903814D01*
X14089186Y-12589529D02*
X13832043Y-12975243D01*
X14474900Y-12603814D02*
X14503471Y-12603814D01*
X14532043Y-12618100D01*
X14546328Y-12632386D01*
X14560614Y-12660957D01*
X14574900Y-12718100D01*
X14574900Y-12789529D01*
X14560614Y-12846671D01*
X14546328Y-12875243D01*
X14532043Y-12889529D01*
X14503471Y-12903814D01*
X14474900Y-12903814D01*
X14446328Y-12889529D01*
X14432043Y-12875243D01*
X14417757Y-12846671D01*
X14403471Y-12789529D01*
X14403471Y-12718100D01*
X14417757Y-12660957D01*
X14432043Y-12632386D01*
X14446328Y-12618100D01*
X14474900Y-12603814D01*
X14703471Y-12875243D02*
X14717757Y-12889529D01*
X14703471Y-12903814D01*
X14689186Y-12889529D01*
X14703471Y-12875243D01*
X14703471Y-12903814D01*
X14903471Y-12603814D02*
X14932043Y-12603814D01*
X14960614Y-12618100D01*
X14974900Y-12632386D01*
X14989185Y-12660957D01*
X15003471Y-12718100D01*
X15003471Y-12789529D01*
X14989185Y-12846671D01*
X14974900Y-12875243D01*
X14960614Y-12889529D01*
X14932043Y-12903814D01*
X14903471Y-12903814D01*
X14874900Y-12889529D01*
X14860614Y-12875243D01*
X14846328Y-12846671D01*
X14832043Y-12789529D01*
X14832043Y-12718100D01*
X14846328Y-12660957D01*
X14860614Y-12632386D01*
X14874900Y-12618100D01*
X14903471Y-12603814D01*
X15103471Y-12603814D02*
X15289185Y-12603814D01*
X15189185Y-12718100D01*
X15232043Y-12718100D01*
X15260614Y-12732386D01*
X15274900Y-12746671D01*
X15289185Y-12775243D01*
X15289185Y-12846671D01*
X15274900Y-12875243D01*
X15260614Y-12889529D01*
X15232043Y-12903814D01*
X15146328Y-12903814D01*
X15117757Y-12889529D01*
X15103471Y-12875243D01*
X15432043Y-12903814D02*
X15489185Y-12903814D01*
X15517757Y-12889529D01*
X15532043Y-12875243D01*
X15560614Y-12832386D01*
X15574900Y-12775243D01*
X15574900Y-12660957D01*
X15560614Y-12632386D01*
X15546328Y-12618100D01*
X15517757Y-12603814D01*
X15460614Y-12603814D01*
X15432043Y-12618100D01*
X15417757Y-12632386D01*
X15403471Y-12660957D01*
X15403471Y-12732386D01*
X15417757Y-12760957D01*
X15432043Y-12775243D01*
X15460614Y-12789529D01*
X15517757Y-12789529D01*
X15546328Y-12775243D01*
X15560614Y-12760957D01*
X15574900Y-12732386D01*
X15689186Y-12603814D02*
X15689186Y-12660957D01*
X15803471Y-12603814D02*
X15803471Y-12660957D01*
X16246328Y-13018100D02*
X16232043Y-13003814D01*
X16203471Y-12960957D01*
X16189185Y-12932386D01*
X16174900Y-12889529D01*
X16160614Y-12818100D01*
X16160614Y-12760957D01*
X16174900Y-12689529D01*
X16189185Y-12646671D01*
X16203471Y-12618100D01*
X16232043Y-12575243D01*
X16246328Y-12560957D01*
X16332043Y-12603814D02*
X16517757Y-12603814D01*
X16417757Y-12718100D01*
X16460614Y-12718100D01*
X16489185Y-12732386D01*
X16503471Y-12746671D01*
X16517757Y-12775243D01*
X16517757Y-12846671D01*
X16503471Y-12875243D01*
X16489185Y-12889529D01*
X16460614Y-12903814D01*
X16374900Y-12903814D01*
X16346328Y-12889529D01*
X16332043Y-12875243D01*
X16689185Y-12732386D02*
X16660614Y-12718100D01*
X16646328Y-12703814D01*
X16632043Y-12675243D01*
X16632043Y-12660957D01*
X16646328Y-12632386D01*
X16660614Y-12618100D01*
X16689185Y-12603814D01*
X16746328Y-12603814D01*
X16774900Y-12618100D01*
X16789186Y-12632386D01*
X16803471Y-12660957D01*
X16803471Y-12675243D01*
X16789186Y-12703814D01*
X16774900Y-12718100D01*
X16746328Y-12732386D01*
X16689185Y-12732386D01*
X16660614Y-12746671D01*
X16646328Y-12760957D01*
X16632043Y-12789529D01*
X16632043Y-12846671D01*
X16646328Y-12875243D01*
X16660614Y-12889529D01*
X16689185Y-12903814D01*
X16746328Y-12903814D01*
X16774900Y-12889529D01*
X16789186Y-12875243D01*
X16803471Y-12846671D01*
X16803471Y-12789529D01*
X16789186Y-12760957D01*
X16774900Y-12746671D01*
X16746328Y-12732386D01*
X17160614Y-12903814D02*
X17160614Y-12603814D01*
X17289186Y-12903814D02*
X17289186Y-12746671D01*
X17274900Y-12718100D01*
X17246328Y-12703814D01*
X17203471Y-12703814D01*
X17174900Y-12718100D01*
X17160614Y-12732386D01*
X17474900Y-12903814D02*
X17446328Y-12889529D01*
X17432043Y-12875243D01*
X17417757Y-12846671D01*
X17417757Y-12760957D01*
X17432043Y-12732386D01*
X17446328Y-12718100D01*
X17474900Y-12703814D01*
X17517757Y-12703814D01*
X17546328Y-12718100D01*
X17560614Y-12732386D01*
X17574900Y-12760957D01*
X17574900Y-12846671D01*
X17560614Y-12875243D01*
X17546328Y-12889529D01*
X17517757Y-12903814D01*
X17474900Y-12903814D01*
X17746328Y-12903814D02*
X17717757Y-12889529D01*
X17703471Y-12860957D01*
X17703471Y-12603814D01*
X17974900Y-12889529D02*
X17946329Y-12903814D01*
X17889186Y-12903814D01*
X17860614Y-12889529D01*
X17846329Y-12860957D01*
X17846329Y-12746671D01*
X17860614Y-12718100D01*
X17889186Y-12703814D01*
X17946329Y-12703814D01*
X17974900Y-12718100D01*
X17989186Y-12746671D01*
X17989186Y-12775243D01*
X17846329Y-12803814D01*
X18103471Y-12889529D02*
X18132043Y-12903814D01*
X18189186Y-12903814D01*
X18217757Y-12889529D01*
X18232043Y-12860957D01*
X18232043Y-12846671D01*
X18217757Y-12818100D01*
X18189186Y-12803814D01*
X18146329Y-12803814D01*
X18117757Y-12789529D01*
X18103471Y-12760957D01*
X18103471Y-12746671D01*
X18117757Y-12718100D01*
X18146329Y-12703814D01*
X18189186Y-12703814D01*
X18217757Y-12718100D01*
X18332043Y-13018100D02*
X18346329Y-13003814D01*
X18374900Y-12960957D01*
X18389186Y-12932386D01*
X18403471Y-12889529D01*
X18417757Y-12818100D01*
X18417757Y-12760957D01*
X18403471Y-12689529D01*
X18389186Y-12646671D01*
X18374900Y-12618100D01*
X18346329Y-12575243D01*
X18332043Y-12560957D01*
X11524100Y-13113300D02*
X11524100Y-13214900D01*
X11473300Y-13164100D02*
X11574900Y-13164100D01*
X12003471Y-13299814D02*
X11832043Y-13299814D01*
X11917757Y-13299814D02*
X11917757Y-12999814D01*
X11889186Y-13042671D01*
X11860614Y-13071243D01*
X11832043Y-13085529D01*
X12132043Y-13271243D02*
X12146328Y-13285529D01*
X12132043Y-13299814D01*
X12117757Y-13285529D01*
X12132043Y-13271243D01*
X12132043Y-13299814D01*
X12332043Y-12999814D02*
X12360614Y-12999814D01*
X12389186Y-13014100D01*
X12403471Y-13028386D01*
X12417757Y-13056957D01*
X12432043Y-13114100D01*
X12432043Y-13185529D01*
X12417757Y-13242671D01*
X12403471Y-13271243D01*
X12389186Y-13285529D01*
X12360614Y-13299814D01*
X12332043Y-13299814D01*
X12303471Y-13285529D01*
X12289186Y-13271243D01*
X12274900Y-13242671D01*
X12260614Y-13185529D01*
X12260614Y-13114100D01*
X12274900Y-13056957D01*
X12289186Y-13028386D01*
X12303471Y-13014100D01*
X12332043Y-12999814D01*
X12546328Y-13028386D02*
X12560614Y-13014100D01*
X12589186Y-12999814D01*
X12660614Y-12999814D01*
X12689186Y-13014100D01*
X12703471Y-13028386D01*
X12717757Y-13056957D01*
X12717757Y-13085529D01*
X12703471Y-13128386D01*
X12532043Y-13299814D01*
X12717757Y-13299814D01*
X12846328Y-13299814D02*
X12846328Y-13099814D01*
X12846328Y-13128386D02*
X12860614Y-13114100D01*
X12889186Y-13099814D01*
X12932043Y-13099814D01*
X12960614Y-13114100D01*
X12974900Y-13142671D01*
X12974900Y-13299814D01*
X12974900Y-13142671D02*
X12989186Y-13114100D01*
X13017757Y-13099814D01*
X13060614Y-13099814D01*
X13089186Y-13114100D01*
X13103471Y-13142671D01*
X13103471Y-13299814D01*
X13246328Y-13299814D02*
X13246328Y-13099814D01*
X13246328Y-13128386D02*
X13260614Y-13114100D01*
X13289186Y-13099814D01*
X13332043Y-13099814D01*
X13360614Y-13114100D01*
X13374900Y-13142671D01*
X13374900Y-13299814D01*
X13374900Y-13142671D02*
X13389186Y-13114100D01*
X13417757Y-13099814D01*
X13460614Y-13099814D01*
X13489186Y-13114100D01*
X13503471Y-13142671D01*
X13503471Y-13299814D01*
X14089186Y-12985529D02*
X13832043Y-13371243D01*
X14474900Y-12999814D02*
X14503471Y-12999814D01*
X14532043Y-13014100D01*
X14546328Y-13028386D01*
X14560614Y-13056957D01*
X14574900Y-13114100D01*
X14574900Y-13185529D01*
X14560614Y-13242671D01*
X14546328Y-13271243D01*
X14532043Y-13285529D01*
X14503471Y-13299814D01*
X14474900Y-13299814D01*
X14446328Y-13285529D01*
X14432043Y-13271243D01*
X14417757Y-13242671D01*
X14403471Y-13185529D01*
X14403471Y-13114100D01*
X14417757Y-13056957D01*
X14432043Y-13028386D01*
X14446328Y-13014100D01*
X14474900Y-12999814D01*
X14703471Y-13271243D02*
X14717757Y-13285529D01*
X14703471Y-13299814D01*
X14689186Y-13285529D01*
X14703471Y-13271243D01*
X14703471Y-13299814D01*
X14903471Y-12999814D02*
X14932043Y-12999814D01*
X14960614Y-13014100D01*
X14974900Y-13028386D01*
X14989185Y-13056957D01*
X15003471Y-13114100D01*
X15003471Y-13185529D01*
X14989185Y-13242671D01*
X14974900Y-13271243D01*
X14960614Y-13285529D01*
X14932043Y-13299814D01*
X14903471Y-13299814D01*
X14874900Y-13285529D01*
X14860614Y-13271243D01*
X14846328Y-13242671D01*
X14832043Y-13185529D01*
X14832043Y-13114100D01*
X14846328Y-13056957D01*
X14860614Y-13028386D01*
X14874900Y-13014100D01*
X14903471Y-12999814D01*
X15260614Y-13099814D02*
X15260614Y-13299814D01*
X15189185Y-12985529D02*
X15117757Y-13199814D01*
X15303471Y-13199814D01*
X15474900Y-12999814D02*
X15503471Y-12999814D01*
X15532043Y-13014100D01*
X15546328Y-13028386D01*
X15560614Y-13056957D01*
X15574900Y-13114100D01*
X15574900Y-13185529D01*
X15560614Y-13242671D01*
X15546328Y-13271243D01*
X15532043Y-13285529D01*
X15503471Y-13299814D01*
X15474900Y-13299814D01*
X15446328Y-13285529D01*
X15432043Y-13271243D01*
X15417757Y-13242671D01*
X15403471Y-13185529D01*
X15403471Y-13114100D01*
X15417757Y-13056957D01*
X15432043Y-13028386D01*
X15446328Y-13014100D01*
X15474900Y-12999814D01*
X15689186Y-12999814D02*
X15689186Y-13056957D01*
X15803471Y-12999814D02*
X15803471Y-13056957D01*
X16246328Y-13414100D02*
X16232043Y-13399814D01*
X16203471Y-13356957D01*
X16189185Y-13328386D01*
X16174900Y-13285529D01*
X16160614Y-13214100D01*
X16160614Y-13156957D01*
X16174900Y-13085529D01*
X16189185Y-13042671D01*
X16203471Y-13014100D01*
X16232043Y-12971243D01*
X16246328Y-12956957D01*
X16489185Y-13099814D02*
X16489185Y-13299814D01*
X16417757Y-12985529D02*
X16346328Y-13199814D01*
X16532043Y-13199814D01*
X16703471Y-12999814D02*
X16732043Y-12999814D01*
X16760614Y-13014100D01*
X16774900Y-13028386D01*
X16789186Y-13056957D01*
X16803471Y-13114100D01*
X16803471Y-13185529D01*
X16789186Y-13242671D01*
X16774900Y-13271243D01*
X16760614Y-13285529D01*
X16732043Y-13299814D01*
X16703471Y-13299814D01*
X16674900Y-13285529D01*
X16660614Y-13271243D01*
X16646328Y-13242671D01*
X16632043Y-13185529D01*
X16632043Y-13114100D01*
X16646328Y-13056957D01*
X16660614Y-13028386D01*
X16674900Y-13014100D01*
X16703471Y-12999814D01*
X17160614Y-13299814D02*
X17160614Y-12999814D01*
X17289186Y-13299814D02*
X17289186Y-13142671D01*
X17274900Y-13114100D01*
X17246328Y-13099814D01*
X17203471Y-13099814D01*
X17174900Y-13114100D01*
X17160614Y-13128386D01*
X17474900Y-13299814D02*
X17446328Y-13285529D01*
X17432043Y-13271243D01*
X17417757Y-13242671D01*
X17417757Y-13156957D01*
X17432043Y-13128386D01*
X17446328Y-13114100D01*
X17474900Y-13099814D01*
X17517757Y-13099814D01*
X17546328Y-13114100D01*
X17560614Y-13128386D01*
X17574900Y-13156957D01*
X17574900Y-13242671D01*
X17560614Y-13271243D01*
X17546328Y-13285529D01*
X17517757Y-13299814D01*
X17474900Y-13299814D01*
X17746328Y-13299814D02*
X17717757Y-13285529D01*
X17703471Y-13256957D01*
X17703471Y-12999814D01*
X17974900Y-13285529D02*
X17946329Y-13299814D01*
X17889186Y-13299814D01*
X17860614Y-13285529D01*
X17846329Y-13256957D01*
X17846329Y-13142671D01*
X17860614Y-13114100D01*
X17889186Y-13099814D01*
X17946329Y-13099814D01*
X17974900Y-13114100D01*
X17989186Y-13142671D01*
X17989186Y-13171243D01*
X17846329Y-13199814D01*
X18103471Y-13285529D02*
X18132043Y-13299814D01*
X18189186Y-13299814D01*
X18217757Y-13285529D01*
X18232043Y-13256957D01*
X18232043Y-13242671D01*
X18217757Y-13214100D01*
X18189186Y-13199814D01*
X18146329Y-13199814D01*
X18117757Y-13185529D01*
X18103471Y-13156957D01*
X18103471Y-13142671D01*
X18117757Y-13114100D01*
X18146329Y-13099814D01*
X18189186Y-13099814D01*
X18217757Y-13114100D01*
X18332043Y-13414100D02*
X18346329Y-13399814D01*
X18374900Y-13356957D01*
X18389186Y-13328386D01*
X18403471Y-13285529D01*
X18417757Y-13214100D01*
X18417757Y-13156957D01*
X18403471Y-13085529D01*
X18389186Y-13042671D01*
X18374900Y-13014100D01*
X18346329Y-12971243D01*
X18332043Y-12956957D01*
M02*
