G04 #@! TF.FileFunction,Profile,NP*
%FSLAX46Y46*%
G04 Gerber Fmt 4.6, Leading zero omitted, Abs format (unit mm)*
G04 Created by KiCad (PCBNEW 4.0.7-e2-6376~61~ubuntu18.04.1) date Thu Jan 17 03:08:45 2019*
%MOMM*%
%LPD*%
G01*
G04 APERTURE LIST*
%ADD10C,0.100000*%
%ADD11C,0.150000*%
G04 APERTURE END LIST*
D10*
D11*
X138430000Y-78740000D02*
X138430000Y-111506000D01*
X153670000Y-111506000D02*
X153670000Y-77470000D01*
X146558000Y-63246000D02*
G75*
G03X146558000Y-63246000I-508000J0D01*
G01*
X175006000Y-63246000D02*
G75*
G03X175006000Y-63246000I-508000J0D01*
G01*
X118110000Y-63246000D02*
G75*
G03X118110000Y-63246000I-508000J0D01*
G01*
X118364000Y-83058000D02*
X120650000Y-83058000D01*
X120650000Y-61976000D02*
X118364000Y-61976000D01*
X171450000Y-61976000D02*
X173736000Y-61976000D01*
X171450000Y-83058000D02*
X173736000Y-83058000D01*
X115824000Y-80518000D02*
X115824000Y-64516000D01*
X128270000Y-80518000D02*
X128270000Y-78740000D01*
X176276000Y-80518000D02*
X176276000Y-67056000D01*
X163830000Y-78740000D02*
X163830000Y-80518000D01*
X176276000Y-64516000D02*
X176276000Y-67056000D01*
X176276000Y-64516000D02*
G75*
G03X173736000Y-61976000I-2540000J0D01*
G01*
X128270000Y-77470000D02*
X128270000Y-78740000D01*
X129540000Y-76200000D02*
X130810000Y-76200000D01*
X161290000Y-76200000D02*
X162560000Y-76200000D01*
X163830000Y-78740000D02*
X163830000Y-77470000D01*
X163830000Y-77470000D02*
G75*
G03X162560000Y-76200000I-1270000J0D01*
G01*
X129540000Y-76200000D02*
G75*
G03X128270000Y-77470000I0J-1270000D01*
G01*
X166370000Y-83058000D02*
X171450000Y-83058000D01*
X173736000Y-83058000D02*
G75*
G03X176276000Y-80518000I0J2540000D01*
G01*
X163830000Y-80518000D02*
G75*
G03X166370000Y-83058000I2540000J0D01*
G01*
X151130000Y-114046000D02*
G75*
G03X153670000Y-111506000I0J2540000D01*
G01*
X138430000Y-111506000D02*
G75*
G03X140970000Y-114046000I2540000J0D01*
G01*
X154940000Y-76200000D02*
G75*
G03X153670000Y-77470000I0J-1270000D01*
G01*
X138430000Y-77470000D02*
G75*
G03X137160000Y-76200000I-1270000J0D01*
G01*
X125730000Y-83058000D02*
G75*
G03X128270000Y-80518000I0J2540000D01*
G01*
X115824000Y-80518000D02*
G75*
G03X118364000Y-83058000I2540000J0D01*
G01*
X118364000Y-61976000D02*
G75*
G03X115824000Y-64516000I0J-2540000D01*
G01*
X125730000Y-83058000D02*
X120650000Y-83058000D01*
X138430000Y-77470000D02*
X138430000Y-78740000D01*
X130810000Y-76200000D02*
X137160000Y-76200000D01*
X151130000Y-114046000D02*
X140970000Y-114046000D01*
X154940000Y-76200000D02*
X161290000Y-76200000D01*
X120650000Y-61976000D02*
X171450000Y-61976000D01*
M02*
