G04 #@! TF.FileFunction,Legend,Top*
%FSLAX46Y46*%
G04 Gerber Fmt 4.6, Leading zero omitted, Abs format (unit mm)*
G04 Created by KiCad (PCBNEW 4.0.7-e2-6376~61~ubuntu18.04.1) date Thu Jan 17 03:08:45 2019*
%MOMM*%
%LPD*%
G01*
G04 APERTURE LIST*
%ADD10C,0.100000*%
%ADD11C,0.150000*%
%ADD12C,0.200000*%
%ADD13C,0.250000*%
%ADD14C,0.120000*%
G04 APERTURE END LIST*
D10*
D11*
X156083334Y-74745905D02*
X155702381Y-74745905D01*
X155664286Y-75126857D01*
X155702381Y-75088762D01*
X155778572Y-75050667D01*
X155969048Y-75050667D01*
X156045238Y-75088762D01*
X156083334Y-75126857D01*
X156121429Y-75203048D01*
X156121429Y-75393524D01*
X156083334Y-75469714D01*
X156045238Y-75507810D01*
X155969048Y-75545905D01*
X155778572Y-75545905D01*
X155702381Y-75507810D01*
X155664286Y-75469714D01*
X156350000Y-74745905D02*
X156616667Y-75545905D01*
X156883334Y-74745905D01*
X157721429Y-74822095D02*
X157759524Y-74784000D01*
X157835715Y-74745905D01*
X158026191Y-74745905D01*
X158102381Y-74784000D01*
X158140477Y-74822095D01*
X158178572Y-74898286D01*
X158178572Y-74974476D01*
X158140477Y-75088762D01*
X157683334Y-75545905D01*
X158178572Y-75545905D01*
X158483334Y-75317333D02*
X158864286Y-75317333D01*
X158407143Y-75545905D02*
X158673810Y-74745905D01*
X158940477Y-75545905D01*
X159816667Y-75545905D02*
X159816667Y-74745905D01*
X160083334Y-75317333D01*
X160350001Y-74745905D01*
X160350001Y-75545905D01*
X160692858Y-75317333D02*
X161073810Y-75317333D01*
X160616667Y-75545905D02*
X160883334Y-74745905D01*
X161150001Y-75545905D01*
X161340477Y-74745905D02*
X161873810Y-75545905D01*
X161873810Y-74745905D02*
X161340477Y-75545905D01*
X128930952Y-74745905D02*
X129426190Y-74745905D01*
X129159523Y-75050667D01*
X129273809Y-75050667D01*
X129349999Y-75088762D01*
X129388095Y-75126857D01*
X129426190Y-75203048D01*
X129426190Y-75393524D01*
X129388095Y-75469714D01*
X129349999Y-75507810D01*
X129273809Y-75545905D01*
X129045237Y-75545905D01*
X128969047Y-75507810D01*
X128930952Y-75469714D01*
X129654761Y-74745905D02*
X129921428Y-75545905D01*
X130188095Y-74745905D01*
X130378571Y-74745905D02*
X130873809Y-74745905D01*
X130607142Y-75050667D01*
X130721428Y-75050667D01*
X130797618Y-75088762D01*
X130835714Y-75126857D01*
X130873809Y-75203048D01*
X130873809Y-75393524D01*
X130835714Y-75469714D01*
X130797618Y-75507810D01*
X130721428Y-75545905D01*
X130492856Y-75545905D01*
X130416666Y-75507810D01*
X130378571Y-75469714D01*
X132207143Y-74745905D02*
X131826190Y-74745905D01*
X131788095Y-75126857D01*
X131826190Y-75088762D01*
X131902381Y-75050667D01*
X132092857Y-75050667D01*
X132169047Y-75088762D01*
X132207143Y-75126857D01*
X132245238Y-75203048D01*
X132245238Y-75393524D01*
X132207143Y-75469714D01*
X132169047Y-75507810D01*
X132092857Y-75545905D01*
X131902381Y-75545905D01*
X131826190Y-75507810D01*
X131788095Y-75469714D01*
X132740476Y-74745905D02*
X132816667Y-74745905D01*
X132892857Y-74784000D01*
X132930952Y-74822095D01*
X132969048Y-74898286D01*
X133007143Y-75050667D01*
X133007143Y-75241143D01*
X132969048Y-75393524D01*
X132930952Y-75469714D01*
X132892857Y-75507810D01*
X132816667Y-75545905D01*
X132740476Y-75545905D01*
X132664286Y-75507810D01*
X132626190Y-75469714D01*
X132588095Y-75393524D01*
X132550000Y-75241143D01*
X132550000Y-75050667D01*
X132588095Y-74898286D01*
X132626190Y-74822095D01*
X132664286Y-74784000D01*
X132740476Y-74745905D01*
X133350000Y-75545905D02*
X133350000Y-75012571D01*
X133350000Y-75088762D02*
X133388095Y-75050667D01*
X133464286Y-75012571D01*
X133578572Y-75012571D01*
X133654762Y-75050667D01*
X133692857Y-75126857D01*
X133692857Y-75545905D01*
X133692857Y-75126857D02*
X133730953Y-75050667D01*
X133807143Y-75012571D01*
X133921429Y-75012571D01*
X133997619Y-75050667D01*
X134035714Y-75126857D01*
X134035714Y-75545905D01*
X134378572Y-75317333D02*
X134759524Y-75317333D01*
X134302381Y-75545905D02*
X134569048Y-74745905D01*
X134835715Y-75545905D01*
X135711905Y-75545905D02*
X135711905Y-74745905D01*
X135978572Y-75317333D01*
X136245239Y-74745905D01*
X136245239Y-75545905D01*
X136588096Y-75317333D02*
X136969048Y-75317333D01*
X136511905Y-75545905D02*
X136778572Y-74745905D01*
X137045239Y-75545905D01*
X137235715Y-74745905D02*
X137769048Y-75545905D01*
X137769048Y-74745905D02*
X137235715Y-75545905D01*
D12*
X140970000Y-75438000D02*
X144018000Y-75438000D01*
X151130000Y-75438000D02*
X148082000Y-75438000D01*
X139446000Y-76962000D02*
X139700000Y-77216000D01*
X139954000Y-76962000D02*
X139446000Y-76962000D01*
X139700000Y-77216000D02*
X139954000Y-76962000D01*
X139700000Y-76708000D02*
X139700000Y-77216000D01*
X152400000Y-77216000D02*
X152400000Y-76962000D01*
X152146000Y-76962000D02*
X152400000Y-77216000D01*
X152654000Y-76962000D02*
X152146000Y-76962000D01*
X152400000Y-77216000D02*
X152654000Y-76962000D01*
X152400000Y-76708000D02*
X152400000Y-77216000D01*
X140970000Y-75438000D02*
G75*
G03X139700000Y-76708000I0J-1270000D01*
G01*
X152400000Y-76708000D02*
G75*
G03X151130000Y-75438000I-1270000J0D01*
G01*
X174752000Y-80010000D02*
G75*
G03X173990000Y-79248000I-762000J0D01*
G01*
X175067631Y-80010000D02*
G75*
G03X175067631Y-80010000I-1077631J0D01*
G01*
X175471062Y-80010000D02*
G75*
G03X175471062Y-80010000I-1481062J0D01*
G01*
X153734285Y-62846000D02*
X153658094Y-62807905D01*
X153543809Y-62807905D01*
X153429523Y-62846000D01*
X153353332Y-62922190D01*
X153315237Y-62998381D01*
X153277142Y-63150762D01*
X153277142Y-63265048D01*
X153315237Y-63417429D01*
X153353332Y-63493619D01*
X153429523Y-63569810D01*
X153543809Y-63607905D01*
X153619999Y-63607905D01*
X153734285Y-63569810D01*
X153772380Y-63531714D01*
X153772380Y-63265048D01*
X153619999Y-63265048D01*
X154115237Y-63607905D02*
X154115237Y-62807905D01*
X154419999Y-62807905D01*
X154496190Y-62846000D01*
X154534285Y-62884095D01*
X154572380Y-62960286D01*
X154572380Y-63074571D01*
X154534285Y-63150762D01*
X154496190Y-63188857D01*
X154419999Y-63226952D01*
X154115237Y-63226952D01*
X154915237Y-63607905D02*
X154915237Y-62807905D01*
X155448570Y-62807905D02*
X155600951Y-62807905D01*
X155677142Y-62846000D01*
X155753332Y-62922190D01*
X155791427Y-63074571D01*
X155791427Y-63341238D01*
X155753332Y-63493619D01*
X155677142Y-63569810D01*
X155600951Y-63607905D01*
X155448570Y-63607905D01*
X155372380Y-63569810D01*
X155296189Y-63493619D01*
X155258094Y-63341238D01*
X155258094Y-63074571D01*
X155296189Y-62922190D01*
X155372380Y-62846000D01*
X155448570Y-62807905D01*
X157010475Y-63188857D02*
X157124761Y-63226952D01*
X157162856Y-63265048D01*
X157200951Y-63341238D01*
X157200951Y-63455524D01*
X157162856Y-63531714D01*
X157124761Y-63569810D01*
X157048570Y-63607905D01*
X156743808Y-63607905D01*
X156743808Y-62807905D01*
X157010475Y-62807905D01*
X157086665Y-62846000D01*
X157124761Y-62884095D01*
X157162856Y-62960286D01*
X157162856Y-63036476D01*
X157124761Y-63112667D01*
X157086665Y-63150762D01*
X157010475Y-63188857D01*
X156743808Y-63188857D01*
X158000951Y-63531714D02*
X157962856Y-63569810D01*
X157848570Y-63607905D01*
X157772380Y-63607905D01*
X157658094Y-63569810D01*
X157581903Y-63493619D01*
X157543808Y-63417429D01*
X157505713Y-63265048D01*
X157505713Y-63150762D01*
X157543808Y-62998381D01*
X157581903Y-62922190D01*
X157658094Y-62846000D01*
X157772380Y-62807905D01*
X157848570Y-62807905D01*
X157962856Y-62846000D01*
X158000951Y-62884095D01*
X158343808Y-63607905D02*
X158343808Y-62807905D01*
X158610475Y-63379333D01*
X158877142Y-62807905D01*
X158877142Y-63607905D01*
X160134285Y-63188857D02*
X160248571Y-63226952D01*
X160286666Y-63265048D01*
X160324761Y-63341238D01*
X160324761Y-63455524D01*
X160286666Y-63531714D01*
X160248571Y-63569810D01*
X160172380Y-63607905D01*
X159867618Y-63607905D01*
X159867618Y-62807905D01*
X160134285Y-62807905D01*
X160210475Y-62846000D01*
X160248571Y-62884095D01*
X160286666Y-62960286D01*
X160286666Y-63036476D01*
X160248571Y-63112667D01*
X160210475Y-63150762D01*
X160134285Y-63188857D01*
X159867618Y-63188857D01*
X160667618Y-63607905D02*
X160667618Y-63074571D01*
X160667618Y-63226952D02*
X160705713Y-63150762D01*
X160743809Y-63112667D01*
X160819999Y-63074571D01*
X160896190Y-63074571D01*
X161467618Y-63569810D02*
X161391428Y-63607905D01*
X161239047Y-63607905D01*
X161162856Y-63569810D01*
X161124761Y-63493619D01*
X161124761Y-63188857D01*
X161162856Y-63112667D01*
X161239047Y-63074571D01*
X161391428Y-63074571D01*
X161467618Y-63112667D01*
X161505713Y-63188857D01*
X161505713Y-63265048D01*
X161124761Y-63341238D01*
X162191427Y-63607905D02*
X162191427Y-63188857D01*
X162153332Y-63112667D01*
X162077142Y-63074571D01*
X161924761Y-63074571D01*
X161848570Y-63112667D01*
X162191427Y-63569810D02*
X162115237Y-63607905D01*
X161924761Y-63607905D01*
X161848570Y-63569810D01*
X161810475Y-63493619D01*
X161810475Y-63417429D01*
X161848570Y-63341238D01*
X161924761Y-63303143D01*
X162115237Y-63303143D01*
X162191427Y-63265048D01*
X162572380Y-63607905D02*
X162572380Y-62807905D01*
X162648571Y-63303143D02*
X162877142Y-63607905D01*
X162877142Y-63074571D02*
X162572380Y-63379333D01*
X163334285Y-63607905D02*
X163258094Y-63569810D01*
X163219999Y-63531714D01*
X163181904Y-63455524D01*
X163181904Y-63226952D01*
X163219999Y-63150762D01*
X163258094Y-63112667D01*
X163334285Y-63074571D01*
X163448571Y-63074571D01*
X163524761Y-63112667D01*
X163562856Y-63150762D01*
X163600952Y-63226952D01*
X163600952Y-63455524D01*
X163562856Y-63531714D01*
X163524761Y-63569810D01*
X163448571Y-63607905D01*
X163334285Y-63607905D01*
X164286666Y-63074571D02*
X164286666Y-63607905D01*
X163943809Y-63074571D02*
X163943809Y-63493619D01*
X163981904Y-63569810D01*
X164058095Y-63607905D01*
X164172381Y-63607905D01*
X164248571Y-63569810D01*
X164286666Y-63531714D01*
X164553333Y-63074571D02*
X164858095Y-63074571D01*
X164667619Y-62807905D02*
X164667619Y-63493619D01*
X164705714Y-63569810D01*
X164781905Y-63607905D01*
X164858095Y-63607905D01*
X165658096Y-63074571D02*
X165848572Y-63607905D01*
X166039048Y-63074571D01*
X166762858Y-63607905D02*
X166305715Y-63607905D01*
X166534286Y-63607905D02*
X166534286Y-62807905D01*
X166458096Y-62922190D01*
X166381905Y-62998381D01*
X166305715Y-63036476D01*
X118872000Y-80010000D02*
G75*
G03X118110000Y-79248000I-762000J0D01*
G01*
X119187631Y-80010000D02*
G75*
G03X119187631Y-80010000I-1077631J0D01*
G01*
X119591062Y-80010000D02*
G75*
G03X119591062Y-80010000I-1481062J0D01*
G01*
D13*
X145050001Y-75366571D02*
X145192858Y-75414190D01*
X145240477Y-75461810D01*
X145288096Y-75557048D01*
X145288096Y-75699905D01*
X145240477Y-75795143D01*
X145192858Y-75842762D01*
X145097620Y-75890381D01*
X144716667Y-75890381D01*
X144716667Y-74890381D01*
X145050001Y-74890381D01*
X145145239Y-74938000D01*
X145192858Y-74985619D01*
X145240477Y-75080857D01*
X145240477Y-75176095D01*
X145192858Y-75271333D01*
X145145239Y-75318952D01*
X145050001Y-75366571D01*
X144716667Y-75366571D01*
X146288096Y-75795143D02*
X146240477Y-75842762D01*
X146097620Y-75890381D01*
X146002382Y-75890381D01*
X145859524Y-75842762D01*
X145764286Y-75747524D01*
X145716667Y-75652286D01*
X145669048Y-75461810D01*
X145669048Y-75318952D01*
X145716667Y-75128476D01*
X145764286Y-75033238D01*
X145859524Y-74938000D01*
X146002382Y-74890381D01*
X146097620Y-74890381D01*
X146240477Y-74938000D01*
X146288096Y-74985619D01*
X146716667Y-75890381D02*
X146716667Y-74890381D01*
X147050001Y-75604667D01*
X147383334Y-74890381D01*
X147383334Y-75890381D01*
D11*
X143852565Y-105517750D02*
X143771753Y-105544688D01*
X143690941Y-105625499D01*
X143637066Y-105733249D01*
X143637065Y-105840999D01*
X143664003Y-105921811D01*
X143744815Y-106056498D01*
X143825628Y-106137310D01*
X143960315Y-106218123D01*
X144041126Y-106245060D01*
X144148877Y-106245060D01*
X144256626Y-106191185D01*
X144310501Y-106137310D01*
X144364376Y-106029561D01*
X144364375Y-105975685D01*
X144175814Y-105787124D01*
X144068064Y-105894874D01*
X144121939Y-105302250D02*
X144121939Y-105248376D01*
X144148877Y-105167563D01*
X144283563Y-105032877D01*
X144364375Y-105005939D01*
X144418250Y-105005939D01*
X144499063Y-105032877D01*
X144552937Y-105086751D01*
X144606812Y-105194501D01*
X144606812Y-105840999D01*
X144956999Y-105490812D01*
X144579875Y-104736565D02*
X144956999Y-104359442D01*
X145280247Y-105167563D01*
X143852565Y-108057750D02*
X143771753Y-108084688D01*
X143690941Y-108165499D01*
X143637066Y-108273249D01*
X143637065Y-108380999D01*
X143664003Y-108461811D01*
X143744815Y-108596498D01*
X143825628Y-108677310D01*
X143960315Y-108758123D01*
X144041126Y-108785060D01*
X144148877Y-108785060D01*
X144256626Y-108731185D01*
X144310501Y-108677310D01*
X144364376Y-108569561D01*
X144364375Y-108515685D01*
X144175814Y-108327124D01*
X144068064Y-108434874D01*
X144121939Y-107842250D02*
X144121939Y-107788376D01*
X144148877Y-107707563D01*
X144283563Y-107572877D01*
X144364375Y-107545939D01*
X144418250Y-107545939D01*
X144499063Y-107572877D01*
X144552937Y-107626751D01*
X144606812Y-107734501D01*
X144606812Y-108380999D01*
X144956999Y-108030812D01*
X144956999Y-107384315D02*
X144876186Y-107411253D01*
X144822311Y-107411252D01*
X144741499Y-107384315D01*
X144714562Y-107357377D01*
X144687624Y-107276565D01*
X144687624Y-107222690D01*
X144714562Y-107141878D01*
X144822312Y-107034128D01*
X144903123Y-107007191D01*
X144956999Y-107007190D01*
X145037811Y-107034128D01*
X145064748Y-107061066D01*
X145091685Y-107141877D01*
X145091685Y-107195753D01*
X145064748Y-107276565D01*
X144956999Y-107384315D01*
X144930061Y-107465127D01*
X144930061Y-107519001D01*
X144956999Y-107599814D01*
X145064748Y-107707563D01*
X145145560Y-107734501D01*
X145199435Y-107734501D01*
X145280247Y-107707563D01*
X145387997Y-107599814D01*
X145414934Y-107519002D01*
X145414934Y-107465126D01*
X145387997Y-107384315D01*
X145280247Y-107276565D01*
X145199435Y-107249627D01*
X145145560Y-107249628D01*
X145064748Y-107276565D01*
X147423939Y-109820375D02*
X147343127Y-109847313D01*
X147262315Y-109928125D01*
X147208440Y-110035874D01*
X147208439Y-110143624D01*
X147235377Y-110224437D01*
X147316190Y-110359123D01*
X147397002Y-110439936D01*
X147531689Y-110520748D01*
X147612501Y-110547685D01*
X147720251Y-110547685D01*
X147828001Y-110493810D01*
X147881875Y-110439936D01*
X147935750Y-110332186D01*
X147935750Y-110278311D01*
X147747188Y-110089750D01*
X147639439Y-110197499D01*
X147908812Y-109281628D02*
X147801063Y-109389377D01*
X147774126Y-109470189D01*
X147774126Y-109524064D01*
X147801063Y-109658751D01*
X147881875Y-109793438D01*
X148097374Y-110008937D01*
X148178186Y-110035874D01*
X148232061Y-110035875D01*
X148312874Y-110008937D01*
X148420623Y-109901188D01*
X148447561Y-109820376D01*
X148447561Y-109766500D01*
X148420623Y-109685688D01*
X148285936Y-109551001D01*
X148205124Y-109524064D01*
X148151249Y-109524064D01*
X148070437Y-109551001D01*
X147962688Y-109658751D01*
X147935750Y-109739563D01*
X147935750Y-109793438D01*
X147962688Y-109874250D01*
X147423939Y-107280375D02*
X147343127Y-107307313D01*
X147262315Y-107388125D01*
X147208440Y-107495874D01*
X147208439Y-107603624D01*
X147235377Y-107684437D01*
X147316190Y-107819123D01*
X147397002Y-107899936D01*
X147531689Y-107980748D01*
X147612501Y-108007685D01*
X147720251Y-108007685D01*
X147828001Y-107953810D01*
X147881875Y-107899936D01*
X147935750Y-107792186D01*
X147935750Y-107738311D01*
X147747188Y-107549750D01*
X147639439Y-107657499D01*
X147935750Y-106714690D02*
X147666376Y-106984064D01*
X147908812Y-107280375D01*
X147908812Y-107226501D01*
X147935750Y-107145688D01*
X148070437Y-107011001D01*
X148151249Y-106984064D01*
X148205124Y-106984064D01*
X148285936Y-107011001D01*
X148420623Y-107145688D01*
X148447561Y-107226500D01*
X148447561Y-107280376D01*
X148420623Y-107361188D01*
X148285936Y-107495874D01*
X148205124Y-107522812D01*
X148151249Y-107522812D01*
X147423939Y-104740375D02*
X147343127Y-104767313D01*
X147262315Y-104848125D01*
X147208440Y-104955874D01*
X147208439Y-105063624D01*
X147235377Y-105144437D01*
X147316190Y-105279123D01*
X147397002Y-105359936D01*
X147531689Y-105440748D01*
X147612501Y-105467685D01*
X147720251Y-105467685D01*
X147828001Y-105413810D01*
X147881875Y-105359936D01*
X147935750Y-105252186D01*
X147935750Y-105198311D01*
X147747188Y-105009750D01*
X147639439Y-105117499D01*
X148097374Y-104390189D02*
X148474498Y-104767313D01*
X147747188Y-104309377D02*
X148016562Y-104848125D01*
X148366748Y-104497939D01*
X143852565Y-102977750D02*
X143771753Y-103004688D01*
X143690941Y-103085499D01*
X143637066Y-103193249D01*
X143637065Y-103300999D01*
X143664003Y-103381811D01*
X143744815Y-103516498D01*
X143825628Y-103597310D01*
X143960315Y-103678123D01*
X144041126Y-103705060D01*
X144148877Y-103705060D01*
X144256626Y-103651185D01*
X144310501Y-103597310D01*
X144364376Y-103489561D01*
X144364375Y-103435685D01*
X144175814Y-103247124D01*
X144068064Y-103354874D01*
X144121939Y-102762250D02*
X144121939Y-102708376D01*
X144148877Y-102627563D01*
X144283563Y-102492877D01*
X144364375Y-102465939D01*
X144418250Y-102465939D01*
X144499063Y-102492877D01*
X144552937Y-102546751D01*
X144606812Y-102654501D01*
X144606812Y-103300999D01*
X144956999Y-102950812D01*
X144876186Y-101900254D02*
X144768437Y-102008004D01*
X144741499Y-102088815D01*
X144741499Y-102142690D01*
X144768437Y-102277377D01*
X144849249Y-102412064D01*
X145064748Y-102627563D01*
X145145560Y-102654501D01*
X145199435Y-102654501D01*
X145280247Y-102627563D01*
X145387997Y-102519814D01*
X145414934Y-102439002D01*
X145414934Y-102385126D01*
X145387997Y-102304315D01*
X145253310Y-102169628D01*
X145172498Y-102142690D01*
X145118623Y-102142690D01*
X145037811Y-102169628D01*
X144930061Y-102277377D01*
X144903123Y-102358190D01*
X144903123Y-102412064D01*
X144930061Y-102492877D01*
X139547619Y-104247905D02*
X139090476Y-104247905D01*
X139319047Y-104247905D02*
X139319047Y-103447905D01*
X139242857Y-103562190D01*
X139166666Y-103638381D01*
X139090476Y-103676476D01*
X139852381Y-103524095D02*
X139890476Y-103486000D01*
X139966667Y-103447905D01*
X140157143Y-103447905D01*
X140233333Y-103486000D01*
X140271429Y-103524095D01*
X140309524Y-103600286D01*
X140309524Y-103676476D01*
X140271429Y-103790762D01*
X139814286Y-104247905D01*
X140309524Y-104247905D01*
X139547619Y-106787905D02*
X139090476Y-106787905D01*
X139319047Y-106787905D02*
X139319047Y-105987905D01*
X139242857Y-106102190D01*
X139166666Y-106178381D01*
X139090476Y-106216476D01*
X140233333Y-105987905D02*
X140080952Y-105987905D01*
X140004762Y-106026000D01*
X139966667Y-106064095D01*
X139890476Y-106178381D01*
X139852381Y-106330762D01*
X139852381Y-106635524D01*
X139890476Y-106711714D01*
X139928571Y-106749810D01*
X140004762Y-106787905D01*
X140157143Y-106787905D01*
X140233333Y-106749810D01*
X140271429Y-106711714D01*
X140309524Y-106635524D01*
X140309524Y-106445048D01*
X140271429Y-106368857D01*
X140233333Y-106330762D01*
X140157143Y-106292667D01*
X140004762Y-106292667D01*
X139928571Y-106330762D01*
X139890476Y-106368857D01*
X139852381Y-106445048D01*
X139090476Y-108604095D02*
X139128571Y-108566000D01*
X139204762Y-108527905D01*
X139395238Y-108527905D01*
X139471428Y-108566000D01*
X139509524Y-108604095D01*
X139547619Y-108680286D01*
X139547619Y-108756476D01*
X139509524Y-108870762D01*
X139052381Y-109327905D01*
X139547619Y-109327905D01*
X140042857Y-108527905D02*
X140119048Y-108527905D01*
X140195238Y-108566000D01*
X140233333Y-108604095D01*
X140271429Y-108680286D01*
X140309524Y-108832667D01*
X140309524Y-109023143D01*
X140271429Y-109175524D01*
X140233333Y-109251714D01*
X140195238Y-109289810D01*
X140119048Y-109327905D01*
X140042857Y-109327905D01*
X139966667Y-109289810D01*
X139928571Y-109251714D01*
X139890476Y-109175524D01*
X139852381Y-109023143D01*
X139852381Y-108832667D01*
X139890476Y-108680286D01*
X139928571Y-108604095D01*
X139966667Y-108566000D01*
X140042857Y-108527905D01*
X139090476Y-111144095D02*
X139128571Y-111106000D01*
X139204762Y-111067905D01*
X139395238Y-111067905D01*
X139471428Y-111106000D01*
X139509524Y-111144095D01*
X139547619Y-111220286D01*
X139547619Y-111296476D01*
X139509524Y-111410762D01*
X139052381Y-111867905D01*
X139547619Y-111867905D01*
X140309524Y-111867905D02*
X139852381Y-111867905D01*
X140080952Y-111867905D02*
X140080952Y-111067905D01*
X140004762Y-111182190D01*
X139928571Y-111258381D01*
X139852381Y-111296476D01*
X143852565Y-110597750D02*
X143771753Y-110624688D01*
X143690941Y-110705499D01*
X143637066Y-110813249D01*
X143637065Y-110920999D01*
X143664003Y-111001811D01*
X143744815Y-111136498D01*
X143825628Y-111217310D01*
X143960315Y-111298123D01*
X144041126Y-111325060D01*
X144148877Y-111325060D01*
X144256626Y-111271185D01*
X144310501Y-111217310D01*
X144364376Y-111109561D01*
X144364375Y-111055685D01*
X144175814Y-110867124D01*
X144068064Y-110974874D01*
X144121939Y-110382250D02*
X144121939Y-110328376D01*
X144148877Y-110247563D01*
X144283563Y-110112877D01*
X144364375Y-110085939D01*
X144418250Y-110085939D01*
X144499063Y-110112877D01*
X144552937Y-110166751D01*
X144606812Y-110274501D01*
X144606812Y-110920999D01*
X144956999Y-110570812D01*
X145226372Y-110301439D02*
X145334122Y-110193689D01*
X145361060Y-110112877D01*
X145361059Y-110059001D01*
X145334123Y-109924315D01*
X145253310Y-109789628D01*
X145037811Y-109574128D01*
X144956999Y-109547190D01*
X144903123Y-109547191D01*
X144822312Y-109574128D01*
X144714562Y-109681878D01*
X144687624Y-109762690D01*
X144687624Y-109816565D01*
X144714562Y-109897377D01*
X144849249Y-110032064D01*
X144930061Y-110059001D01*
X144983936Y-110059002D01*
X145064748Y-110032064D01*
X145172498Y-109924315D01*
X145199435Y-109843503D01*
X145199435Y-109789627D01*
X145172498Y-109708815D01*
X147677939Y-112614375D02*
X147597127Y-112641313D01*
X147516315Y-112722125D01*
X147462440Y-112829874D01*
X147462439Y-112937624D01*
X147489377Y-113018437D01*
X147570190Y-113153123D01*
X147651002Y-113233936D01*
X147785689Y-113314748D01*
X147866501Y-113341685D01*
X147974251Y-113341685D01*
X148082001Y-113287810D01*
X148135875Y-113233936D01*
X148189750Y-113126186D01*
X148189750Y-113072311D01*
X148001188Y-112883750D01*
X147893439Y-112991499D01*
X147866501Y-112371939D02*
X148243625Y-111994815D01*
X148566874Y-112802937D01*
X152552381Y-111334571D02*
X152552381Y-111867905D01*
X152361905Y-111029810D02*
X152171429Y-111601238D01*
X152666667Y-111601238D01*
X151790476Y-108604095D02*
X151828571Y-108566000D01*
X151904762Y-108527905D01*
X152095238Y-108527905D01*
X152171428Y-108566000D01*
X152209524Y-108604095D01*
X152247619Y-108680286D01*
X152247619Y-108756476D01*
X152209524Y-108870762D01*
X151752381Y-109327905D01*
X152247619Y-109327905D01*
X152971429Y-108527905D02*
X152590476Y-108527905D01*
X152552381Y-108908857D01*
X152590476Y-108870762D01*
X152666667Y-108832667D01*
X152857143Y-108832667D01*
X152933333Y-108870762D01*
X152971429Y-108908857D01*
X153009524Y-108985048D01*
X153009524Y-109175524D01*
X152971429Y-109251714D01*
X152933333Y-109289810D01*
X152857143Y-109327905D01*
X152666667Y-109327905D01*
X152590476Y-109289810D01*
X152552381Y-109251714D01*
X151790476Y-106064095D02*
X151828571Y-106026000D01*
X151904762Y-105987905D01*
X152095238Y-105987905D01*
X152171428Y-106026000D01*
X152209524Y-106064095D01*
X152247619Y-106140286D01*
X152247619Y-106216476D01*
X152209524Y-106330762D01*
X151752381Y-106787905D01*
X152247619Y-106787905D01*
X152933333Y-106254571D02*
X152933333Y-106787905D01*
X152742857Y-105949810D02*
X152552381Y-106521238D01*
X153047619Y-106521238D01*
X151790476Y-103524095D02*
X151828571Y-103486000D01*
X151904762Y-103447905D01*
X152095238Y-103447905D01*
X152171428Y-103486000D01*
X152209524Y-103524095D01*
X152247619Y-103600286D01*
X152247619Y-103676476D01*
X152209524Y-103790762D01*
X151752381Y-104247905D01*
X152247619Y-104247905D01*
X152514286Y-103447905D02*
X153009524Y-103447905D01*
X152742857Y-103752667D01*
X152857143Y-103752667D01*
X152933333Y-103790762D01*
X152971429Y-103828857D01*
X153009524Y-103905048D01*
X153009524Y-104095524D01*
X152971429Y-104171714D01*
X152933333Y-104209810D01*
X152857143Y-104247905D01*
X152628571Y-104247905D01*
X152552381Y-104209810D01*
X152514286Y-104171714D01*
X151790476Y-100984095D02*
X151828571Y-100946000D01*
X151904762Y-100907905D01*
X152095238Y-100907905D01*
X152171428Y-100946000D01*
X152209524Y-100984095D01*
X152247619Y-101060286D01*
X152247619Y-101136476D01*
X152209524Y-101250762D01*
X151752381Y-101707905D01*
X152247619Y-101707905D01*
X152552381Y-100984095D02*
X152590476Y-100946000D01*
X152666667Y-100907905D01*
X152857143Y-100907905D01*
X152933333Y-100946000D01*
X152971429Y-100984095D01*
X153009524Y-101060286D01*
X153009524Y-101136476D01*
X152971429Y-101250762D01*
X152514286Y-101707905D01*
X153009524Y-101707905D01*
X152171429Y-83204095D02*
X152209524Y-83166000D01*
X152285715Y-83127905D01*
X152476191Y-83127905D01*
X152552381Y-83166000D01*
X152590477Y-83204095D01*
X152628572Y-83280286D01*
X152628572Y-83356476D01*
X152590477Y-83470762D01*
X152133334Y-83927905D01*
X152628572Y-83927905D01*
X152247619Y-81387905D02*
X152400000Y-81387905D01*
X152476191Y-81349810D01*
X152514286Y-81311714D01*
X152590477Y-81197429D01*
X152628572Y-81045048D01*
X152628572Y-80740286D01*
X152590477Y-80664095D01*
X152552381Y-80626000D01*
X152476191Y-80587905D01*
X152323810Y-80587905D01*
X152247619Y-80626000D01*
X152209524Y-80664095D01*
X152171429Y-80740286D01*
X152171429Y-80930762D01*
X152209524Y-81006952D01*
X152247619Y-81045048D01*
X152323810Y-81083143D01*
X152476191Y-81083143D01*
X152552381Y-81045048D01*
X152590477Y-81006952D01*
X152628572Y-80930762D01*
X152247619Y-78847905D02*
X151790476Y-78847905D01*
X152019047Y-78847905D02*
X152019047Y-78047905D01*
X151942857Y-78162190D01*
X151866666Y-78238381D01*
X151790476Y-78276476D01*
X152742857Y-78047905D02*
X152819048Y-78047905D01*
X152895238Y-78086000D01*
X152933333Y-78124095D01*
X152971429Y-78200286D01*
X153009524Y-78352667D01*
X153009524Y-78543143D01*
X152971429Y-78695524D01*
X152933333Y-78771714D01*
X152895238Y-78809810D01*
X152819048Y-78847905D01*
X152742857Y-78847905D01*
X152666667Y-78809810D01*
X152628571Y-78771714D01*
X152590476Y-78695524D01*
X152552381Y-78543143D01*
X152552381Y-78352667D01*
X152590476Y-78200286D01*
X152628571Y-78124095D01*
X152666667Y-78086000D01*
X152742857Y-78047905D01*
X146686971Y-80646840D02*
X146121286Y-80081154D01*
X146713908Y-80296653D01*
X146498410Y-79704030D01*
X147064095Y-80269716D01*
X146875533Y-79326907D02*
X146983283Y-79219157D01*
X147064095Y-79192219D01*
X147171844Y-79192219D01*
X147306531Y-79273032D01*
X147495093Y-79461594D01*
X147575905Y-79596281D01*
X147575906Y-79704030D01*
X147548968Y-79784843D01*
X147441219Y-79892592D01*
X147360407Y-79919530D01*
X147252657Y-79919530D01*
X147117970Y-79838717D01*
X146929408Y-79650155D01*
X146848595Y-79515468D01*
X146848596Y-79407719D01*
X146875533Y-79326907D01*
X147872217Y-79407719D02*
X147979967Y-79353844D01*
X148114654Y-79219157D01*
X148141591Y-79138346D01*
X148141591Y-79084470D01*
X148114654Y-79003658D01*
X148060778Y-78949783D01*
X147979967Y-78922846D01*
X147926092Y-78922846D01*
X147845279Y-78949783D01*
X147710592Y-79030595D01*
X147629780Y-79057533D01*
X147575905Y-79057533D01*
X147495093Y-79030595D01*
X147441219Y-78976721D01*
X147414281Y-78895908D01*
X147414281Y-78842034D01*
X147441219Y-78761222D01*
X147575905Y-78626535D01*
X147683655Y-78572659D01*
X148464840Y-78868971D02*
X147899154Y-78303286D01*
X146686971Y-83186840D02*
X146121286Y-82621154D01*
X146713908Y-82836653D01*
X146498410Y-82244030D01*
X147064095Y-82809716D01*
X147333469Y-82540342D02*
X146767784Y-81974657D01*
X147548968Y-82270968D02*
X147656718Y-82217093D01*
X147791405Y-82082406D01*
X147818342Y-82001595D01*
X147818342Y-81947719D01*
X147791405Y-81866907D01*
X147737530Y-81813032D01*
X147656718Y-81786095D01*
X147602843Y-81786095D01*
X147522030Y-81813032D01*
X147387343Y-81893844D01*
X147306531Y-81920782D01*
X147252657Y-81920782D01*
X147171844Y-81893844D01*
X147117970Y-81839970D01*
X147091032Y-81759157D01*
X147091032Y-81705283D01*
X147117970Y-81624470D01*
X147252657Y-81489784D01*
X147360406Y-81435908D01*
X147683655Y-81058785D02*
X147791405Y-80951035D01*
X147872217Y-80924097D01*
X147979966Y-80924097D01*
X148114653Y-81004910D01*
X148303215Y-81193472D01*
X148384027Y-81328159D01*
X148384028Y-81435908D01*
X148357090Y-81516721D01*
X148249341Y-81624470D01*
X148168529Y-81651408D01*
X148060778Y-81651408D01*
X147926092Y-81570595D01*
X147737530Y-81382033D01*
X147656717Y-81247346D01*
X147656718Y-81139597D01*
X147683655Y-81058785D01*
X146592690Y-85767246D02*
X146700440Y-85713371D01*
X146835127Y-85578684D01*
X146862064Y-85497872D01*
X146862064Y-85443996D01*
X146835127Y-85363185D01*
X146781252Y-85309310D01*
X146700440Y-85282372D01*
X146646565Y-85282373D01*
X146565753Y-85309310D01*
X146431066Y-85390122D01*
X146350253Y-85417060D01*
X146296379Y-85417060D01*
X146215566Y-85390122D01*
X146161692Y-85336247D01*
X146134754Y-85255435D01*
X146134754Y-85201561D01*
X146161692Y-85120748D01*
X146296379Y-84986061D01*
X146404128Y-84932186D01*
X147185313Y-85228498D02*
X146619628Y-84662812D01*
X146754315Y-84528126D01*
X146862064Y-84474250D01*
X146969814Y-84474250D01*
X147050626Y-84501188D01*
X147185313Y-84582000D01*
X147266126Y-84662812D01*
X147346938Y-84797499D01*
X147373875Y-84878311D01*
X147373875Y-84986061D01*
X147320000Y-85093811D01*
X147185313Y-85228498D01*
X147562437Y-84528125D02*
X147831810Y-84258751D01*
X147670186Y-84743625D02*
X147293063Y-83989377D01*
X148047310Y-84366501D01*
X148532183Y-83881628D02*
X148208934Y-84204877D01*
X148370558Y-84043253D02*
X147804873Y-83477567D01*
X147831810Y-83612253D01*
X147831810Y-83720004D01*
X147804873Y-83800815D01*
X151790476Y-98444095D02*
X151828571Y-98406000D01*
X151904762Y-98367905D01*
X152095238Y-98367905D01*
X152171428Y-98406000D01*
X152209524Y-98444095D01*
X152247619Y-98520286D01*
X152247619Y-98596476D01*
X152209524Y-98710762D01*
X151752381Y-99167905D01*
X152247619Y-99167905D01*
X152514286Y-98367905D02*
X153047619Y-98367905D01*
X152704762Y-99167905D01*
X152247619Y-96627905D02*
X151790476Y-96627905D01*
X152019047Y-96627905D02*
X152019047Y-95827905D01*
X151942857Y-95942190D01*
X151866666Y-96018381D01*
X151790476Y-96056476D01*
X152704762Y-96170762D02*
X152628571Y-96132667D01*
X152590476Y-96094571D01*
X152552381Y-96018381D01*
X152552381Y-95980286D01*
X152590476Y-95904095D01*
X152628571Y-95866000D01*
X152704762Y-95827905D01*
X152857143Y-95827905D01*
X152933333Y-95866000D01*
X152971429Y-95904095D01*
X153009524Y-95980286D01*
X153009524Y-96018381D01*
X152971429Y-96094571D01*
X152933333Y-96132667D01*
X152857143Y-96170762D01*
X152704762Y-96170762D01*
X152628571Y-96208857D01*
X152590476Y-96246952D01*
X152552381Y-96323143D01*
X152552381Y-96475524D01*
X152590476Y-96551714D01*
X152628571Y-96589810D01*
X152704762Y-96627905D01*
X152857143Y-96627905D01*
X152933333Y-96589810D01*
X152971429Y-96551714D01*
X153009524Y-96475524D01*
X153009524Y-96323143D01*
X152971429Y-96246952D01*
X152933333Y-96208857D01*
X152857143Y-96170762D01*
X152247619Y-94087905D02*
X151790476Y-94087905D01*
X152019047Y-94087905D02*
X152019047Y-93287905D01*
X151942857Y-93402190D01*
X151866666Y-93478381D01*
X151790476Y-93516476D01*
X152514286Y-93287905D02*
X153047619Y-93287905D01*
X152704762Y-94087905D01*
X152133334Y-90747905D02*
X152666667Y-90747905D01*
X152323810Y-91547905D01*
X152323810Y-88550762D02*
X152247619Y-88512667D01*
X152209524Y-88474571D01*
X152171429Y-88398381D01*
X152171429Y-88360286D01*
X152209524Y-88284095D01*
X152247619Y-88246000D01*
X152323810Y-88207905D01*
X152476191Y-88207905D01*
X152552381Y-88246000D01*
X152590477Y-88284095D01*
X152628572Y-88360286D01*
X152628572Y-88398381D01*
X152590477Y-88474571D01*
X152552381Y-88512667D01*
X152476191Y-88550762D01*
X152323810Y-88550762D01*
X152247619Y-88588857D01*
X152209524Y-88626952D01*
X152171429Y-88703143D01*
X152171429Y-88855524D01*
X152209524Y-88931714D01*
X152247619Y-88969810D01*
X152323810Y-89007905D01*
X152476191Y-89007905D01*
X152552381Y-88969810D01*
X152590477Y-88931714D01*
X152628572Y-88855524D01*
X152628572Y-88703143D01*
X152590477Y-88626952D01*
X152552381Y-88588857D01*
X152476191Y-88550762D01*
X152133334Y-85667905D02*
X152628572Y-85667905D01*
X152361905Y-85972667D01*
X152476191Y-85972667D01*
X152552381Y-86010762D01*
X152590477Y-86048857D01*
X152628572Y-86125048D01*
X152628572Y-86315524D01*
X152590477Y-86391714D01*
X152552381Y-86429810D01*
X152476191Y-86467905D01*
X152247619Y-86467905D01*
X152171429Y-86429810D01*
X152133334Y-86391714D01*
X147423939Y-102200375D02*
X147343127Y-102227313D01*
X147262315Y-102308125D01*
X147208440Y-102415874D01*
X147208439Y-102523624D01*
X147235377Y-102604437D01*
X147316190Y-102739123D01*
X147397002Y-102819936D01*
X147531689Y-102900748D01*
X147612501Y-102927685D01*
X147720251Y-102927685D01*
X147828001Y-102873810D01*
X147881875Y-102819936D01*
X147935750Y-102712186D01*
X147935750Y-102658311D01*
X147747188Y-102469750D01*
X147639439Y-102577499D01*
X147612501Y-101957939D02*
X147962688Y-101607753D01*
X147989625Y-102011814D01*
X148070437Y-101931001D01*
X148151249Y-101904064D01*
X148205124Y-101904064D01*
X148285936Y-101931001D01*
X148420623Y-102065688D01*
X148447561Y-102146500D01*
X148447561Y-102200376D01*
X148420623Y-102281188D01*
X148258999Y-102442812D01*
X148178187Y-102469750D01*
X148124312Y-102469749D01*
X147423939Y-99660375D02*
X147343127Y-99687313D01*
X147262315Y-99768125D01*
X147208440Y-99875874D01*
X147208439Y-99983624D01*
X147235377Y-100064437D01*
X147316190Y-100199123D01*
X147397002Y-100279936D01*
X147531689Y-100360748D01*
X147612501Y-100387685D01*
X147720251Y-100387685D01*
X147828001Y-100333810D01*
X147881875Y-100279936D01*
X147935750Y-100172186D01*
X147935750Y-100118311D01*
X147747188Y-99929750D01*
X147639439Y-100037499D01*
X147693313Y-99444876D02*
X147693313Y-99391001D01*
X147720251Y-99310189D01*
X147854938Y-99175502D01*
X147935750Y-99148565D01*
X147989625Y-99148564D01*
X148070437Y-99175502D01*
X148124312Y-99229377D01*
X148178187Y-99337126D01*
X148178187Y-99983624D01*
X148528373Y-99633438D01*
X147423939Y-97120375D02*
X147343127Y-97147313D01*
X147262315Y-97228125D01*
X147208440Y-97335874D01*
X147208439Y-97443624D01*
X147235377Y-97524437D01*
X147316190Y-97659123D01*
X147397002Y-97739936D01*
X147531689Y-97820748D01*
X147612501Y-97847685D01*
X147720251Y-97847685D01*
X147828001Y-97793810D01*
X147881875Y-97739936D01*
X147935750Y-97632186D01*
X147935750Y-97578311D01*
X147747188Y-97389750D01*
X147639439Y-97497499D01*
X148528373Y-97093438D02*
X148205124Y-97416687D01*
X148366748Y-97255063D02*
X147801063Y-96689377D01*
X147828000Y-96824064D01*
X147828000Y-96931814D01*
X147801063Y-97012626D01*
X147423939Y-94580375D02*
X147343127Y-94607313D01*
X147262315Y-94688125D01*
X147208440Y-94795874D01*
X147208439Y-94903624D01*
X147235377Y-94984437D01*
X147316190Y-95119123D01*
X147397002Y-95199936D01*
X147531689Y-95280748D01*
X147612501Y-95307685D01*
X147720251Y-95307685D01*
X147828001Y-95253810D01*
X147881875Y-95199936D01*
X147935750Y-95092186D01*
X147935750Y-95038311D01*
X147747188Y-94849750D01*
X147639439Y-94957499D01*
X147774126Y-94176315D02*
X147828001Y-94122439D01*
X147908812Y-94095502D01*
X147962687Y-94095502D01*
X148043500Y-94122439D01*
X148178187Y-94203252D01*
X148312874Y-94337939D01*
X148393686Y-94472626D01*
X148420623Y-94553438D01*
X148420623Y-94607313D01*
X148393686Y-94688125D01*
X148339811Y-94742000D01*
X148258999Y-94768937D01*
X148205123Y-94768937D01*
X148124312Y-94742000D01*
X147989625Y-94661188D01*
X147854938Y-94526501D01*
X147774126Y-94391814D01*
X147747188Y-94311001D01*
X147747188Y-94257126D01*
X147774126Y-94176315D01*
X147425844Y-92754216D02*
X147425845Y-92808092D01*
X147371970Y-92915841D01*
X147318095Y-92969716D01*
X147210346Y-93023591D01*
X147102595Y-93023591D01*
X147021784Y-92996654D01*
X146887097Y-92915841D01*
X146806284Y-92835029D01*
X146725472Y-92700342D01*
X146698534Y-92619530D01*
X146698535Y-92511780D01*
X146752410Y-92404030D01*
X146806284Y-92350156D01*
X146914034Y-92296281D01*
X146967908Y-92296281D01*
X147425844Y-92269343D02*
X147614406Y-92080781D01*
X147991530Y-92296281D02*
X147722156Y-92565655D01*
X147156470Y-91999970D01*
X147425845Y-91730595D01*
X148530278Y-91757532D02*
X148207030Y-92080781D01*
X148368654Y-91919157D02*
X147802968Y-91353472D01*
X147829905Y-91488158D01*
X147829905Y-91595908D01*
X147802968Y-91676720D01*
X147425844Y-90214216D02*
X147425845Y-90268092D01*
X147371970Y-90375841D01*
X147318095Y-90429716D01*
X147210346Y-90483591D01*
X147102595Y-90483591D01*
X147021784Y-90456654D01*
X146887097Y-90375841D01*
X146806284Y-90295029D01*
X146725472Y-90160342D01*
X146698534Y-90079530D01*
X146698535Y-89971780D01*
X146752410Y-89864030D01*
X146806284Y-89810156D01*
X146914034Y-89756281D01*
X146967908Y-89756281D01*
X147425844Y-89729343D02*
X147614406Y-89540781D01*
X147991530Y-89756281D02*
X147722156Y-90025655D01*
X147156470Y-89459970D01*
X147425845Y-89190595D01*
X147776031Y-88840409D02*
X147829906Y-88786534D01*
X147910718Y-88759597D01*
X147964592Y-88759597D01*
X148045405Y-88786534D01*
X148180092Y-88867346D01*
X148314779Y-89002033D01*
X148395592Y-89136720D01*
X148422528Y-89217532D01*
X148422529Y-89271408D01*
X148395592Y-89352219D01*
X148341716Y-89406095D01*
X148260905Y-89433032D01*
X148207029Y-89433032D01*
X148126217Y-89406095D01*
X147991530Y-89325282D01*
X147856843Y-89190595D01*
X147776031Y-89055908D01*
X147749093Y-88975096D01*
X147749094Y-88921221D01*
X147776031Y-88840409D01*
X146606159Y-88293777D02*
X146713909Y-88239902D01*
X146848596Y-88105215D01*
X146875533Y-88024403D01*
X146875533Y-87970527D01*
X146848596Y-87889716D01*
X146794721Y-87835841D01*
X146713909Y-87808903D01*
X146660034Y-87808904D01*
X146579222Y-87835841D01*
X146444535Y-87916653D01*
X146363722Y-87943591D01*
X146309848Y-87943591D01*
X146229035Y-87916653D01*
X146175161Y-87862778D01*
X146148223Y-87781966D01*
X146148223Y-87728092D01*
X146175161Y-87647279D01*
X146309848Y-87512592D01*
X146417597Y-87458717D01*
X147468156Y-87377905D02*
X147468157Y-87431780D01*
X147414281Y-87539530D01*
X147360407Y-87593404D01*
X147252657Y-87647279D01*
X147144907Y-87647279D01*
X147064095Y-87620342D01*
X146929408Y-87539530D01*
X146848596Y-87458717D01*
X146767784Y-87324030D01*
X146740846Y-87243218D01*
X146740846Y-87135468D01*
X146794721Y-87027719D01*
X146848596Y-86973844D01*
X146956346Y-86919969D01*
X147010220Y-86919969D01*
X148033842Y-86919969D02*
X147764468Y-87189343D01*
X147198782Y-86623658D01*
X148518715Y-86435096D02*
X148195466Y-86758345D01*
X148357090Y-86596721D02*
X147791405Y-86031035D01*
X147818342Y-86165722D01*
X147818342Y-86273472D01*
X147791405Y-86354284D01*
X139852381Y-93287905D02*
X139700000Y-93287905D01*
X139623810Y-93326000D01*
X139585715Y-93364095D01*
X139509524Y-93478381D01*
X139471429Y-93630762D01*
X139471429Y-93935524D01*
X139509524Y-94011714D01*
X139547619Y-94049810D01*
X139623810Y-94087905D01*
X139776191Y-94087905D01*
X139852381Y-94049810D01*
X139890477Y-94011714D01*
X139928572Y-93935524D01*
X139928572Y-93745048D01*
X139890477Y-93668857D01*
X139852381Y-93630762D01*
X139776191Y-93592667D01*
X139623810Y-93592667D01*
X139547619Y-93630762D01*
X139509524Y-93668857D01*
X139471429Y-93745048D01*
X139547619Y-96627905D02*
X139090476Y-96627905D01*
X139319047Y-96627905D02*
X139319047Y-95827905D01*
X139242857Y-95942190D01*
X139166666Y-96018381D01*
X139090476Y-96056476D01*
X139814286Y-95827905D02*
X140309524Y-95827905D01*
X140042857Y-96132667D01*
X140157143Y-96132667D01*
X140233333Y-96170762D01*
X140271429Y-96208857D01*
X140309524Y-96285048D01*
X140309524Y-96475524D01*
X140271429Y-96551714D01*
X140233333Y-96589810D01*
X140157143Y-96627905D01*
X139928571Y-96627905D01*
X139852381Y-96589810D01*
X139814286Y-96551714D01*
X139547619Y-99167905D02*
X139090476Y-99167905D01*
X139319047Y-99167905D02*
X139319047Y-98367905D01*
X139242857Y-98482190D01*
X139166666Y-98558381D01*
X139090476Y-98596476D01*
X139928571Y-99167905D02*
X140080952Y-99167905D01*
X140157143Y-99129810D01*
X140195238Y-99091714D01*
X140271429Y-98977429D01*
X140309524Y-98825048D01*
X140309524Y-98520286D01*
X140271429Y-98444095D01*
X140233333Y-98406000D01*
X140157143Y-98367905D01*
X140004762Y-98367905D01*
X139928571Y-98406000D01*
X139890476Y-98444095D01*
X139852381Y-98520286D01*
X139852381Y-98710762D01*
X139890476Y-98786952D01*
X139928571Y-98825048D01*
X140004762Y-98863143D01*
X140157143Y-98863143D01*
X140233333Y-98825048D01*
X140271429Y-98786952D01*
X140309524Y-98710762D01*
X139090476Y-100984095D02*
X139128571Y-100946000D01*
X139204762Y-100907905D01*
X139395238Y-100907905D01*
X139471428Y-100946000D01*
X139509524Y-100984095D01*
X139547619Y-101060286D01*
X139547619Y-101136476D01*
X139509524Y-101250762D01*
X139052381Y-101707905D01*
X139547619Y-101707905D01*
X140233333Y-100907905D02*
X140080952Y-100907905D01*
X140004762Y-100946000D01*
X139966667Y-100984095D01*
X139890476Y-101098381D01*
X139852381Y-101250762D01*
X139852381Y-101555524D01*
X139890476Y-101631714D01*
X139928571Y-101669810D01*
X140004762Y-101707905D01*
X140157143Y-101707905D01*
X140233333Y-101669810D01*
X140271429Y-101631714D01*
X140309524Y-101555524D01*
X140309524Y-101365048D01*
X140271429Y-101288857D01*
X140233333Y-101250762D01*
X140157143Y-101212667D01*
X140004762Y-101212667D01*
X139928571Y-101250762D01*
X139890476Y-101288857D01*
X139852381Y-101365048D01*
X143852565Y-100437750D02*
X143771753Y-100464688D01*
X143690941Y-100545499D01*
X143637066Y-100653249D01*
X143637065Y-100760999D01*
X143664003Y-100841811D01*
X143744815Y-100976498D01*
X143825628Y-101057310D01*
X143960315Y-101138123D01*
X144041126Y-101165060D01*
X144148877Y-101165060D01*
X144256626Y-101111185D01*
X144310501Y-101057310D01*
X144364376Y-100949561D01*
X144364375Y-100895685D01*
X144175814Y-100707124D01*
X144068064Y-100814874D01*
X144121939Y-100222250D02*
X144121939Y-100168376D01*
X144148877Y-100087563D01*
X144283563Y-99952877D01*
X144364375Y-99925939D01*
X144418250Y-99925939D01*
X144499063Y-99952877D01*
X144552937Y-100006751D01*
X144606812Y-100114501D01*
X144606812Y-100760999D01*
X144956999Y-100410812D01*
X144903124Y-99333316D02*
X144633750Y-99602690D01*
X144876186Y-99899001D01*
X144876186Y-99845127D01*
X144903124Y-99764315D01*
X145037811Y-99629628D01*
X145118623Y-99602690D01*
X145172498Y-99602690D01*
X145253310Y-99629628D01*
X145387997Y-99764315D01*
X145414934Y-99845126D01*
X145414934Y-99899002D01*
X145387997Y-99979814D01*
X145253310Y-100114501D01*
X145172498Y-100141439D01*
X145118623Y-100141438D01*
X143852565Y-97897750D02*
X143771753Y-97924688D01*
X143690941Y-98005499D01*
X143637066Y-98113249D01*
X143637065Y-98220999D01*
X143664003Y-98301811D01*
X143744815Y-98436498D01*
X143825628Y-98517310D01*
X143960315Y-98598123D01*
X144041126Y-98625060D01*
X144148877Y-98625060D01*
X144256626Y-98571185D01*
X144310501Y-98517310D01*
X144364376Y-98409561D01*
X144364375Y-98355685D01*
X144175814Y-98167124D01*
X144068064Y-98274874D01*
X144121939Y-97682250D02*
X144121939Y-97628376D01*
X144148877Y-97547563D01*
X144283563Y-97412877D01*
X144364375Y-97385939D01*
X144418250Y-97385939D01*
X144499063Y-97412877D01*
X144552937Y-97466751D01*
X144606812Y-97574501D01*
X144606812Y-98220999D01*
X144956999Y-97870812D01*
X145064747Y-97008815D02*
X145441872Y-97385939D01*
X144714562Y-96928004D02*
X144983936Y-97466751D01*
X145334122Y-97116565D01*
X143852565Y-95357750D02*
X143771753Y-95384688D01*
X143690941Y-95465499D01*
X143637066Y-95573249D01*
X143637065Y-95680999D01*
X143664003Y-95761811D01*
X143744815Y-95896498D01*
X143825628Y-95977310D01*
X143960315Y-96058123D01*
X144041126Y-96085060D01*
X144148877Y-96085060D01*
X144256626Y-96031185D01*
X144310501Y-95977310D01*
X144364376Y-95869561D01*
X144364375Y-95815685D01*
X144175814Y-95627124D01*
X144068064Y-95734874D01*
X144121939Y-95142250D02*
X144121939Y-95088376D01*
X144148877Y-95007563D01*
X144283563Y-94872877D01*
X144364375Y-94845939D01*
X144418250Y-94845939D01*
X144499063Y-94872877D01*
X144552937Y-94926751D01*
X144606812Y-95034501D01*
X144606812Y-95680999D01*
X144956999Y-95330812D01*
X144579875Y-94576565D02*
X144930061Y-94226379D01*
X144956999Y-94630440D01*
X145037811Y-94549628D01*
X145118623Y-94522690D01*
X145172498Y-94522690D01*
X145253310Y-94549628D01*
X145387997Y-94684315D01*
X145414934Y-94765126D01*
X145414934Y-94819002D01*
X145387997Y-94899814D01*
X145226372Y-95061439D01*
X145145561Y-95088376D01*
X145091685Y-95088375D01*
X143852565Y-92817750D02*
X143771753Y-92844688D01*
X143690941Y-92925499D01*
X143637066Y-93033249D01*
X143637065Y-93140999D01*
X143664003Y-93221811D01*
X143744815Y-93356498D01*
X143825628Y-93437310D01*
X143960315Y-93518123D01*
X144041126Y-93545060D01*
X144148877Y-93545060D01*
X144256626Y-93491185D01*
X144310501Y-93437310D01*
X144364376Y-93329561D01*
X144364375Y-93275685D01*
X144175814Y-93087124D01*
X144068064Y-93194874D01*
X144121939Y-92602250D02*
X144121939Y-92548376D01*
X144148877Y-92467563D01*
X144283563Y-92332877D01*
X144364375Y-92305939D01*
X144418250Y-92305939D01*
X144499063Y-92332877D01*
X144552937Y-92386751D01*
X144606812Y-92494501D01*
X144606812Y-93140999D01*
X144956999Y-92790812D01*
X144660687Y-92063502D02*
X144660687Y-92009628D01*
X144687625Y-91928815D01*
X144822312Y-91794128D01*
X144903123Y-91767191D01*
X144956999Y-91767190D01*
X145037811Y-91794128D01*
X145091685Y-91848003D01*
X145145561Y-91955753D01*
X145145561Y-92602250D01*
X145495747Y-92252064D01*
X143852565Y-90277750D02*
X143771753Y-90304688D01*
X143690941Y-90385499D01*
X143637066Y-90493249D01*
X143637065Y-90600999D01*
X143664003Y-90681811D01*
X143744815Y-90816498D01*
X143825628Y-90897310D01*
X143960315Y-90978123D01*
X144041126Y-91005060D01*
X144148877Y-91005060D01*
X144256626Y-90951185D01*
X144310501Y-90897310D01*
X144364376Y-90789561D01*
X144364375Y-90735685D01*
X144175814Y-90547124D01*
X144068064Y-90654874D01*
X144121939Y-90062250D02*
X144121939Y-90008376D01*
X144148877Y-89927563D01*
X144283563Y-89792877D01*
X144364375Y-89765939D01*
X144418250Y-89765939D01*
X144499063Y-89792877D01*
X144552937Y-89846751D01*
X144606812Y-89954501D01*
X144606812Y-90600999D01*
X144956999Y-90250812D01*
X145495747Y-89712064D02*
X145172498Y-90035313D01*
X145334122Y-89873689D02*
X144768437Y-89308004D01*
X144795374Y-89442690D01*
X144795374Y-89550440D01*
X144768437Y-89631252D01*
X139890477Y-90747905D02*
X139509524Y-90747905D01*
X139471429Y-91128857D01*
X139509524Y-91090762D01*
X139585715Y-91052667D01*
X139776191Y-91052667D01*
X139852381Y-91090762D01*
X139890477Y-91128857D01*
X139928572Y-91205048D01*
X139928572Y-91395524D01*
X139890477Y-91471714D01*
X139852381Y-91509810D01*
X139776191Y-91547905D01*
X139585715Y-91547905D01*
X139509524Y-91509810D01*
X139471429Y-91471714D01*
X139661905Y-83127905D02*
X139738096Y-83127905D01*
X139814286Y-83166000D01*
X139852381Y-83204095D01*
X139890477Y-83280286D01*
X139928572Y-83432667D01*
X139928572Y-83623143D01*
X139890477Y-83775524D01*
X139852381Y-83851714D01*
X139814286Y-83889810D01*
X139738096Y-83927905D01*
X139661905Y-83927905D01*
X139585715Y-83889810D01*
X139547619Y-83851714D01*
X139509524Y-83775524D01*
X139471429Y-83623143D01*
X139471429Y-83432667D01*
X139509524Y-83280286D01*
X139547619Y-83204095D01*
X139585715Y-83166000D01*
X139661905Y-83127905D01*
X139928572Y-86467905D02*
X139471429Y-86467905D01*
X139700000Y-86467905D02*
X139700000Y-85667905D01*
X139623810Y-85782190D01*
X139547619Y-85858381D01*
X139471429Y-85896476D01*
X139547619Y-89007905D02*
X139090476Y-89007905D01*
X139319047Y-89007905D02*
X139319047Y-88207905D01*
X139242857Y-88322190D01*
X139166666Y-88398381D01*
X139090476Y-88436476D01*
X140309524Y-89007905D02*
X139852381Y-89007905D01*
X140080952Y-89007905D02*
X140080952Y-88207905D01*
X140004762Y-88322190D01*
X139928571Y-88398381D01*
X139852381Y-88436476D01*
X144052690Y-88815246D02*
X144160440Y-88761371D01*
X144295127Y-88626684D01*
X144322064Y-88545872D01*
X144322064Y-88491996D01*
X144295127Y-88411185D01*
X144241252Y-88357310D01*
X144160440Y-88330372D01*
X144106565Y-88330373D01*
X144025753Y-88357310D01*
X143891066Y-88438122D01*
X143810253Y-88465060D01*
X143756379Y-88465060D01*
X143675566Y-88438122D01*
X143621692Y-88384247D01*
X143594754Y-88303435D01*
X143594754Y-88249561D01*
X143621692Y-88168748D01*
X143756379Y-88034061D01*
X143864128Y-87980186D01*
X144914687Y-87899374D02*
X144914688Y-87953249D01*
X144860812Y-88060999D01*
X144806938Y-88114873D01*
X144699188Y-88168748D01*
X144591438Y-88168748D01*
X144510626Y-88141811D01*
X144375939Y-88060999D01*
X144295127Y-87980186D01*
X144214315Y-87845499D01*
X144187377Y-87764687D01*
X144187377Y-87656937D01*
X144241253Y-87549188D01*
X144295127Y-87495313D01*
X144402877Y-87441438D01*
X144456751Y-87441438D01*
X145480373Y-87441438D02*
X145210999Y-87710812D01*
X144645313Y-87145127D01*
X145668934Y-87252877D02*
X145103249Y-86687191D01*
X145992183Y-86929628D02*
X145426498Y-86848815D01*
X145426498Y-86363942D02*
X145426498Y-87010440D01*
X144066159Y-86261777D02*
X144173909Y-86207902D01*
X144308596Y-86073215D01*
X144335533Y-85992403D01*
X144335533Y-85938527D01*
X144308596Y-85857716D01*
X144254721Y-85803841D01*
X144173909Y-85776903D01*
X144120034Y-85776904D01*
X144039222Y-85803841D01*
X143904535Y-85884653D01*
X143823722Y-85911591D01*
X143769848Y-85911591D01*
X143689035Y-85884653D01*
X143635161Y-85830778D01*
X143608223Y-85749966D01*
X143608223Y-85696092D01*
X143635161Y-85615279D01*
X143769848Y-85480592D01*
X143877597Y-85426717D01*
X144928156Y-85345905D02*
X144928157Y-85399780D01*
X144874281Y-85507530D01*
X144820407Y-85561404D01*
X144712657Y-85615279D01*
X144604907Y-85615279D01*
X144524095Y-85588342D01*
X144389408Y-85507530D01*
X144308596Y-85426717D01*
X144227784Y-85292030D01*
X144200846Y-85211218D01*
X144200846Y-85103468D01*
X144254721Y-84995719D01*
X144308596Y-84941844D01*
X144416346Y-84887969D01*
X144470220Y-84887969D01*
X145493842Y-84887969D02*
X145224468Y-85157343D01*
X144658782Y-84591658D01*
X145224468Y-84025973D02*
X145278343Y-83972097D01*
X145359154Y-83945160D01*
X145413029Y-83945160D01*
X145493842Y-83972097D01*
X145628529Y-84052910D01*
X145763216Y-84187597D01*
X145844028Y-84322284D01*
X145870965Y-84403096D01*
X145870965Y-84456971D01*
X145844028Y-84537783D01*
X145790153Y-84591658D01*
X145709341Y-84618595D01*
X145655465Y-84618595D01*
X145574654Y-84591658D01*
X145439967Y-84510846D01*
X145305280Y-84376159D01*
X145224468Y-84241472D01*
X145197530Y-84160659D01*
X145197530Y-84106784D01*
X145224468Y-84025973D01*
X144052690Y-83735246D02*
X144160440Y-83681371D01*
X144295127Y-83546684D01*
X144322064Y-83465872D01*
X144322064Y-83411996D01*
X144295127Y-83331185D01*
X144241252Y-83277310D01*
X144160440Y-83250372D01*
X144106565Y-83250373D01*
X144025753Y-83277310D01*
X143891066Y-83358122D01*
X143810253Y-83385060D01*
X143756379Y-83385060D01*
X143675566Y-83358122D01*
X143621692Y-83304247D01*
X143594754Y-83223435D01*
X143594754Y-83169561D01*
X143621692Y-83088748D01*
X143756379Y-82954061D01*
X143864128Y-82900186D01*
X144645313Y-83196498D02*
X144079628Y-82630812D01*
X144214315Y-82496126D01*
X144322064Y-82442250D01*
X144429814Y-82442250D01*
X144510626Y-82469188D01*
X144645313Y-82550000D01*
X144726126Y-82630812D01*
X144806938Y-82765499D01*
X144833875Y-82846311D01*
X144833875Y-82954061D01*
X144780000Y-83061811D01*
X144645313Y-83196498D01*
X145022437Y-82496125D02*
X145291810Y-82226751D01*
X145130186Y-82711625D02*
X144753063Y-81957377D01*
X145507310Y-82334501D01*
X145237936Y-81472504D02*
X145291811Y-81418629D01*
X145372623Y-81391692D01*
X145426497Y-81391692D01*
X145507310Y-81418629D01*
X145641997Y-81499442D01*
X145776684Y-81634128D01*
X145857496Y-81768815D01*
X145884433Y-81849628D01*
X145884434Y-81903503D01*
X145857496Y-81984315D01*
X145803621Y-82038190D01*
X145722810Y-82065127D01*
X145668934Y-82065127D01*
X145588122Y-82038190D01*
X145453435Y-81957377D01*
X145318748Y-81822690D01*
X145237936Y-81688004D01*
X145210998Y-81607191D01*
X145210999Y-81553316D01*
X145237936Y-81472504D01*
X144474031Y-80319780D02*
X144016095Y-80238968D01*
X144150782Y-80643029D02*
X143585097Y-80077343D01*
X143800596Y-79861844D01*
X143881408Y-79834906D01*
X143935283Y-79834906D01*
X144016095Y-79861844D01*
X144096907Y-79942656D01*
X144123845Y-80023468D01*
X144123845Y-80077343D01*
X144096907Y-80158155D01*
X143881408Y-80373654D01*
X144662593Y-80131218D02*
X144581780Y-79457783D01*
X144285469Y-79754094D02*
X144958904Y-79834907D01*
X143571628Y-77550812D02*
X143894877Y-77227563D01*
X144298938Y-77954873D02*
X143733253Y-77389188D01*
X144595250Y-77658561D02*
X144514437Y-76985126D01*
X144218126Y-77281437D02*
X144891561Y-77362250D01*
X139547619Y-81387905D02*
X139090476Y-81387905D01*
X139319047Y-81387905D02*
X139319047Y-80587905D01*
X139242857Y-80702190D01*
X139166666Y-80778381D01*
X139090476Y-80816476D01*
X140271429Y-80587905D02*
X139890476Y-80587905D01*
X139852381Y-80968857D01*
X139890476Y-80930762D01*
X139966667Y-80892667D01*
X140157143Y-80892667D01*
X140233333Y-80930762D01*
X140271429Y-80968857D01*
X140309524Y-81045048D01*
X140309524Y-81235524D01*
X140271429Y-81311714D01*
X140233333Y-81349810D01*
X140157143Y-81387905D01*
X139966667Y-81387905D01*
X139890476Y-81349810D01*
X139852381Y-81311714D01*
D12*
X121754571Y-63924571D02*
X121754571Y-62924571D01*
X121754571Y-63067429D02*
X121825999Y-62996000D01*
X121968857Y-62924571D01*
X122183142Y-62924571D01*
X122325999Y-62996000D01*
X122397428Y-63138857D01*
X122397428Y-63924571D01*
X122397428Y-63138857D02*
X122468857Y-62996000D01*
X122611714Y-62924571D01*
X122825999Y-62924571D01*
X122968857Y-62996000D01*
X123040285Y-63138857D01*
X123040285Y-63924571D01*
X124397428Y-63924571D02*
X124397428Y-63138857D01*
X124325999Y-62996000D01*
X124183142Y-62924571D01*
X123897428Y-62924571D01*
X123754571Y-62996000D01*
X124397428Y-63853143D02*
X124254571Y-63924571D01*
X123897428Y-63924571D01*
X123754571Y-63853143D01*
X123683142Y-63710286D01*
X123683142Y-63567429D01*
X123754571Y-63424571D01*
X123897428Y-63353143D01*
X124254571Y-63353143D01*
X124397428Y-63281714D01*
X124897428Y-62924571D02*
X125468857Y-62924571D01*
X125111714Y-62424571D02*
X125111714Y-63710286D01*
X125183142Y-63853143D01*
X125326000Y-63924571D01*
X125468857Y-63924571D01*
X126540285Y-63853143D02*
X126397428Y-63924571D01*
X126111714Y-63924571D01*
X125968857Y-63853143D01*
X125897428Y-63710286D01*
X125897428Y-63138857D01*
X125968857Y-62996000D01*
X126111714Y-62924571D01*
X126397428Y-62924571D01*
X126540285Y-62996000D01*
X126611714Y-63138857D01*
X126611714Y-63281714D01*
X125897428Y-63424571D01*
X127254571Y-63924571D02*
X127254571Y-62924571D01*
X127254571Y-62424571D02*
X127183142Y-62496000D01*
X127254571Y-62567429D01*
X127325999Y-62496000D01*
X127254571Y-62424571D01*
X127254571Y-62567429D01*
X127968857Y-62924571D02*
X127968857Y-64210286D01*
X127897428Y-64353143D01*
X127754571Y-64424571D01*
X127683143Y-64424571D01*
X127968857Y-62424571D02*
X127897428Y-62496000D01*
X127968857Y-62567429D01*
X128040285Y-62496000D01*
X127968857Y-62424571D01*
X127968857Y-62567429D01*
X128897429Y-63924571D02*
X128754571Y-63853143D01*
X128683143Y-63781714D01*
X128611714Y-63638857D01*
X128611714Y-63210286D01*
X128683143Y-63067429D01*
X128754571Y-62996000D01*
X128897429Y-62924571D01*
X129111714Y-62924571D01*
X129254571Y-62996000D01*
X129326000Y-63067429D01*
X129397429Y-63210286D01*
X129397429Y-63638857D01*
X129326000Y-63781714D01*
X129254571Y-63853143D01*
X129111714Y-63924571D01*
X128897429Y-63924571D01*
X130040286Y-63924571D02*
X130040286Y-62924571D01*
X130040286Y-63210286D02*
X130111714Y-63067429D01*
X130183143Y-62996000D01*
X130326000Y-62924571D01*
X130468857Y-62924571D01*
X131611714Y-63924571D02*
X131611714Y-62424571D01*
X131611714Y-63853143D02*
X131468857Y-63924571D01*
X131183143Y-63924571D01*
X131040285Y-63853143D01*
X130968857Y-63781714D01*
X130897428Y-63638857D01*
X130897428Y-63210286D01*
X130968857Y-63067429D01*
X131040285Y-62996000D01*
X131183143Y-62924571D01*
X131468857Y-62924571D01*
X131611714Y-62996000D01*
X132968857Y-63924571D02*
X132968857Y-63138857D01*
X132897428Y-62996000D01*
X132754571Y-62924571D01*
X132468857Y-62924571D01*
X132326000Y-62996000D01*
X132968857Y-63853143D02*
X132826000Y-63924571D01*
X132468857Y-63924571D01*
X132326000Y-63853143D01*
X132254571Y-63710286D01*
X132254571Y-63567429D01*
X132326000Y-63424571D01*
X132468857Y-63353143D01*
X132826000Y-63353143D01*
X132968857Y-63281714D01*
X134326000Y-63853143D02*
X134183143Y-63924571D01*
X133897429Y-63924571D01*
X133754571Y-63853143D01*
X133683143Y-63781714D01*
X133611714Y-63638857D01*
X133611714Y-63210286D01*
X133683143Y-63067429D01*
X133754571Y-62996000D01*
X133897429Y-62924571D01*
X134183143Y-62924571D01*
X134326000Y-62996000D01*
X134968857Y-63924571D02*
X134968857Y-62424571D01*
X135611714Y-63924571D02*
X135611714Y-63138857D01*
X135540285Y-62996000D01*
X135397428Y-62924571D01*
X135183143Y-62924571D01*
X135040285Y-62996000D01*
X134968857Y-63067429D01*
X136897428Y-63853143D02*
X136754571Y-63924571D01*
X136468857Y-63924571D01*
X136326000Y-63853143D01*
X136254571Y-63710286D01*
X136254571Y-63138857D01*
X136326000Y-62996000D01*
X136468857Y-62924571D01*
X136754571Y-62924571D01*
X136897428Y-62996000D01*
X136968857Y-63138857D01*
X136968857Y-63281714D01*
X136254571Y-63424571D01*
X137611714Y-63781714D02*
X137683142Y-63853143D01*
X137611714Y-63924571D01*
X137540285Y-63853143D01*
X137611714Y-63781714D01*
X137611714Y-63924571D01*
X138326000Y-63924571D02*
X138326000Y-62924571D01*
X138326000Y-62424571D02*
X138254571Y-62496000D01*
X138326000Y-62567429D01*
X138397428Y-62496000D01*
X138326000Y-62424571D01*
X138326000Y-62567429D01*
X139040286Y-62924571D02*
X139040286Y-63924571D01*
X139040286Y-63067429D02*
X139111714Y-62996000D01*
X139254572Y-62924571D01*
X139468857Y-62924571D01*
X139611714Y-62996000D01*
X139683143Y-63138857D01*
X139683143Y-63924571D01*
X140183143Y-62924571D02*
X140754572Y-62924571D01*
X140397429Y-63924571D02*
X140397429Y-62638857D01*
X140468857Y-62496000D01*
X140611715Y-62424571D01*
X140754572Y-62424571D01*
X141468858Y-63924571D02*
X141326000Y-63853143D01*
X141254572Y-63781714D01*
X141183143Y-63638857D01*
X141183143Y-63210286D01*
X141254572Y-63067429D01*
X141326000Y-62996000D01*
X141468858Y-62924571D01*
X141683143Y-62924571D01*
X141826000Y-62996000D01*
X141897429Y-63067429D01*
X141968858Y-63210286D01*
X141968858Y-63638857D01*
X141897429Y-63781714D01*
X141826000Y-63853143D01*
X141683143Y-63924571D01*
X141468858Y-63924571D01*
X164298381Y-77438095D02*
X164298381Y-76819047D01*
X164679333Y-77152381D01*
X164679333Y-77009523D01*
X164726952Y-76914285D01*
X164774571Y-76866666D01*
X164869810Y-76819047D01*
X165107905Y-76819047D01*
X165203143Y-76866666D01*
X165250762Y-76914285D01*
X165298381Y-77009523D01*
X165298381Y-77295238D01*
X165250762Y-77390476D01*
X165203143Y-77438095D01*
X164298381Y-76533333D02*
X165298381Y-76200000D01*
X164298381Y-75866666D01*
X164298381Y-75628571D02*
X164298381Y-75009523D01*
X164679333Y-75342857D01*
X164679333Y-75199999D01*
X164726952Y-75104761D01*
X164774571Y-75057142D01*
X164869810Y-75009523D01*
X165107905Y-75009523D01*
X165203143Y-75057142D01*
X165250762Y-75104761D01*
X165298381Y-75199999D01*
X165298381Y-75485714D01*
X165250762Y-75580952D01*
X165203143Y-75628571D01*
X175807619Y-76009524D02*
X175807619Y-75533333D01*
X175331429Y-75485714D01*
X175379048Y-75533333D01*
X175426667Y-75628571D01*
X175426667Y-75866667D01*
X175379048Y-75961905D01*
X175331429Y-76009524D01*
X175236190Y-76057143D01*
X174998095Y-76057143D01*
X174902857Y-76009524D01*
X174855238Y-75961905D01*
X174807619Y-75866667D01*
X174807619Y-75628571D01*
X174855238Y-75533333D01*
X174902857Y-75485714D01*
X175807619Y-76342857D02*
X174807619Y-76676190D01*
X175807619Y-77009524D01*
X128055619Y-75755524D02*
X128055619Y-75279333D01*
X127579429Y-75231714D01*
X127627048Y-75279333D01*
X127674667Y-75374571D01*
X127674667Y-75612667D01*
X127627048Y-75707905D01*
X127579429Y-75755524D01*
X127484190Y-75803143D01*
X127246095Y-75803143D01*
X127150857Y-75755524D01*
X127103238Y-75707905D01*
X127055619Y-75612667D01*
X127055619Y-75374571D01*
X127103238Y-75279333D01*
X127150857Y-75231714D01*
X128055619Y-76088857D02*
X127055619Y-76422190D01*
X128055619Y-76755524D01*
X116292381Y-77184095D02*
X116292381Y-76565047D01*
X116673333Y-76898381D01*
X116673333Y-76755523D01*
X116720952Y-76660285D01*
X116768571Y-76612666D01*
X116863810Y-76565047D01*
X117101905Y-76565047D01*
X117197143Y-76612666D01*
X117244762Y-76660285D01*
X117292381Y-76755523D01*
X117292381Y-77041238D01*
X117244762Y-77136476D01*
X117197143Y-77184095D01*
X116292381Y-76279333D02*
X117292381Y-75946000D01*
X116292381Y-75612666D01*
X116292381Y-75374571D02*
X116292381Y-74755523D01*
X116673333Y-75088857D01*
X116673333Y-74945999D01*
X116720952Y-74850761D01*
X116768571Y-74803142D01*
X116863810Y-74755523D01*
X117101905Y-74755523D01*
X117197143Y-74803142D01*
X117244762Y-74850761D01*
X117292381Y-74945999D01*
X117292381Y-75231714D01*
X117244762Y-75326952D01*
X117197143Y-75374571D01*
D11*
X139547619Y-78847905D02*
X139090476Y-78847905D01*
X139319047Y-78847905D02*
X139319047Y-78047905D01*
X139242857Y-78162190D01*
X139166666Y-78238381D01*
X139090476Y-78276476D01*
X140233333Y-78314571D02*
X140233333Y-78847905D01*
X140042857Y-78009810D02*
X139852381Y-78581238D01*
X140347619Y-78581238D01*
D12*
X124079048Y-82113429D02*
X124840953Y-82113429D01*
X121539048Y-82113429D02*
X122300953Y-82113429D01*
X121920001Y-82494381D02*
X121920001Y-81732476D01*
X169799048Y-82113429D02*
X170560953Y-82113429D01*
X167259048Y-82113429D02*
X168020953Y-82113429D01*
X167640001Y-82494381D02*
X167640001Y-81732476D01*
D14*
X175510000Y-74142000D02*
X116590000Y-74142000D01*
X116590000Y-74142000D02*
X116590000Y-64542000D01*
X116590000Y-64542000D02*
X175510000Y-64542000D01*
X175510000Y-64542000D02*
X175510000Y-74142000D01*
X118304000Y-74616000D02*
X118304000Y-77276000D01*
X123444000Y-74616000D02*
X118304000Y-74616000D01*
X123444000Y-77276000D02*
X118304000Y-77276000D01*
X123444000Y-74616000D02*
X123444000Y-77276000D01*
X124714000Y-74616000D02*
X126044000Y-74616000D01*
X126044000Y-74616000D02*
X126044000Y-75946000D01*
X166056000Y-74870000D02*
X166056000Y-77530000D01*
X171196000Y-74870000D02*
X166056000Y-74870000D01*
X171196000Y-77530000D02*
X166056000Y-77530000D01*
X171196000Y-74870000D02*
X171196000Y-77530000D01*
X172466000Y-74870000D02*
X173796000Y-74870000D01*
X173796000Y-74870000D02*
X173796000Y-76200000D01*
X170445715Y-66804381D02*
X169874286Y-66804381D01*
X170160000Y-66804381D02*
X170160000Y-65804381D01*
X170064762Y-65947238D01*
X169969524Y-66042476D01*
X169874286Y-66090095D01*
M02*
