M48
;DRILL file {KiCad 4.0.7-e2-6376~61~ubuntu18.04.1} date Thu Jan 17 03:07:37 2019
;FORMAT={-:-/ absolute / inch / decimal}
FMAT,2
INCH,TZ
T1C0.016
T2C0.039
T3C0.040
%
G90
G05
M72
T1
X5.25Y-2.61
X6.77Y-2.59
T2
X4.71Y-2.99
X4.8Y-3.14
X4.81Y-2.99
X4.9Y-3.14
X4.91Y-2.99
X5.6Y-3.09
X5.6Y-3.19
X5.6Y-3.29
X5.6Y-3.39
X5.6Y-3.49
X5.6Y-3.59
X5.6Y-3.69
X5.6Y-3.79
X5.6Y-3.89
X5.6Y-3.99
X5.6Y-4.09
X5.6Y-4.19
X5.6Y-4.29
X5.6Y-4.39
X5.9Y-3.09
X5.9Y-3.19
X5.9Y-3.29
X5.9Y-3.39
X5.9Y-3.49
X5.9Y-3.59
X5.9Y-3.69
X5.9Y-3.79
X5.9Y-3.89
X5.9Y-3.99
X5.9Y-4.09
X5.9Y-4.19
X5.9Y-4.29
X5.9Y-4.39
X6.59Y-3.
X6.6Y-3.14
X6.69Y-3.
X6.7Y-3.14
X6.79Y-3.
T3
X4.8Y-2.68
X4.8Y-2.78
X4.9Y-2.68
X4.9Y-2.78
X5.Y-2.68
X5.Y-2.78
X5.1Y-2.68
X5.1Y-2.78
X5.2Y-2.68
X5.2Y-2.78
X5.3Y-2.68
X5.3Y-2.78
X5.4Y-2.68
X5.4Y-2.78
X5.5Y-2.68
X5.5Y-2.78
X5.6Y-2.68
X5.6Y-2.78
X5.7Y-2.68
X5.7Y-2.78
X5.8Y-2.68
X5.8Y-2.78
X5.9Y-2.68
X5.9Y-2.78
X6.Y-2.68
X6.Y-2.78
X6.1Y-2.68
X6.1Y-2.78
X6.2Y-2.68
X6.2Y-2.78
X6.3Y-2.68
X6.3Y-2.78
X6.4Y-2.68
X6.4Y-2.78
X6.5Y-2.68
X6.5Y-2.78
X6.6Y-2.68
X6.6Y-2.78
X6.7Y-2.68
X6.7Y-2.78
T0
M30
