G04 #@! TF.FileFunction,Legend,Bot*
%FSLAX46Y46*%
G04 Gerber Fmt 4.6, Leading zero omitted, Abs format (unit mm)*
G04 Created by KiCad (PCBNEW 4.0.7-e2-6376~61~ubuntu18.04.1) date Thu Jan 17 03:08:45 2019*
%MOMM*%
%LPD*%
G01*
G04 APERTURE LIST*
%ADD10C,0.100000*%
%ADD11C,0.120000*%
%ADD12C,0.150000*%
G04 APERTURE END LIST*
D10*
D11*
X151190000Y-112836000D02*
X148530000Y-112836000D01*
X151190000Y-79756000D02*
X151190000Y-112836000D01*
X148530000Y-79756000D02*
X148530000Y-112836000D01*
X151190000Y-79756000D02*
X148530000Y-79756000D01*
X151190000Y-78486000D02*
X151190000Y-77156000D01*
X151190000Y-77156000D02*
X149860000Y-77156000D01*
X125790000Y-78426000D02*
X125790000Y-81086000D01*
X123190000Y-78426000D02*
X125790000Y-78426000D01*
X123190000Y-81086000D02*
X125790000Y-81086000D01*
X123190000Y-78426000D02*
X123190000Y-81086000D01*
X121920000Y-78426000D02*
X120590000Y-78426000D01*
X120590000Y-78426000D02*
X120590000Y-79756000D01*
X143570000Y-112836000D02*
X140910000Y-112836000D01*
X143570000Y-79756000D02*
X143570000Y-112836000D01*
X140910000Y-79756000D02*
X140910000Y-112836000D01*
X143570000Y-79756000D02*
X140910000Y-79756000D01*
X143570000Y-78486000D02*
X143570000Y-77156000D01*
X143570000Y-77156000D02*
X142240000Y-77156000D01*
X171510000Y-78426000D02*
X171510000Y-81086000D01*
X168910000Y-78426000D02*
X171510000Y-78426000D01*
X168910000Y-81086000D02*
X171510000Y-81086000D01*
X168910000Y-78426000D02*
X168910000Y-81086000D01*
X167640000Y-78426000D02*
X166310000Y-78426000D01*
X166310000Y-78426000D02*
X166310000Y-79756000D01*
D12*
X150193333Y-75608381D02*
X150193333Y-76322667D01*
X150240953Y-76465524D01*
X150336191Y-76560762D01*
X150479048Y-76608381D01*
X150574286Y-76608381D01*
X149812381Y-75608381D02*
X149193333Y-75608381D01*
X149526667Y-75989333D01*
X149383809Y-75989333D01*
X149288571Y-76036952D01*
X149240952Y-76084571D01*
X149193333Y-76179810D01*
X149193333Y-76417905D01*
X149240952Y-76513143D01*
X149288571Y-76560762D01*
X149383809Y-76608381D01*
X149669524Y-76608381D01*
X149764762Y-76560762D01*
X149812381Y-76513143D01*
X119042381Y-79422667D02*
X119756667Y-79422667D01*
X119899524Y-79375047D01*
X119994762Y-79279809D01*
X120042381Y-79136952D01*
X120042381Y-79041714D01*
X119375714Y-80327429D02*
X120042381Y-80327429D01*
X118994762Y-80089333D02*
X119709048Y-79851238D01*
X119709048Y-80470286D01*
X142573333Y-75608381D02*
X142573333Y-76322667D01*
X142620953Y-76465524D01*
X142716191Y-76560762D01*
X142859048Y-76608381D01*
X142954286Y-76608381D01*
X141620952Y-75608381D02*
X142097143Y-75608381D01*
X142144762Y-76084571D01*
X142097143Y-76036952D01*
X142001905Y-75989333D01*
X141763809Y-75989333D01*
X141668571Y-76036952D01*
X141620952Y-76084571D01*
X141573333Y-76179810D01*
X141573333Y-76417905D01*
X141620952Y-76513143D01*
X141668571Y-76560762D01*
X141763809Y-76608381D01*
X142001905Y-76608381D01*
X142097143Y-76560762D01*
X142144762Y-76513143D01*
X164762381Y-79422667D02*
X165476667Y-79422667D01*
X165619524Y-79375047D01*
X165714762Y-79279809D01*
X165762381Y-79136952D01*
X165762381Y-79041714D01*
X164762381Y-80327429D02*
X164762381Y-80136952D01*
X164810000Y-80041714D01*
X164857619Y-79994095D01*
X165000476Y-79898857D01*
X165190952Y-79851238D01*
X165571905Y-79851238D01*
X165667143Y-79898857D01*
X165714762Y-79946476D01*
X165762381Y-80041714D01*
X165762381Y-80232191D01*
X165714762Y-80327429D01*
X165667143Y-80375048D01*
X165571905Y-80422667D01*
X165333810Y-80422667D01*
X165238571Y-80375048D01*
X165190952Y-80327429D01*
X165143333Y-80232191D01*
X165143333Y-80041714D01*
X165190952Y-79946476D01*
X165238571Y-79898857D01*
X165333810Y-79851238D01*
M02*
